<svg width="534" height="180" viewBox="0 0 534 180" fill="none" xmlns="http://www.w3.org/2000/svg">
<path d="M0 90V180H94H188V90V-9.38773e-06H94H0V90ZM98 38.8C98.6667 39.4667 100.267 40 101.467 40C102.667 40 104.4 40.9333 105.333 42C106.533 43.4667 110.667 44 121.067 44.2667L135.333 44.6667V50V55.3333L121.067 55.7333C110.667 56 106.533 56.5333 105.333 58C104.4 59.0667 102.933 60 102.133 60C101.2 60 98.9333 60.8 96.9333 61.6C94.1333 62.9333 93.3333 64.1333 93.6 66.6667C94 69.7333 94.5333 70 102 70.4C106.4 70.5333 111.333 70.9333 113.067 71.3333C116.933 72.2667 119.067 77.6 117.2 81.8667C116 84.5333 116.267 86 119.067 90.8C124.133 99.7333 124.4 103.333 120.8 116.4C114.933 137.733 112.933 139.067 85.8667 138.4L66.6667 138L62.5333 133.867C59.6 130.933 57.6 126.533 55.2 118.667C51.0667 104.267 51.2 100.667 55.8667 91.7333C58.5333 86.8 59.3333 83.8667 58.5333 82.5333C56.6667 79.4667 57.2 75.2 59.7333 72.9333C61.3333 71.4667 65.2 70.6667 72 70.4C81.6 70 82 69.8667 82.4 66.6667C82.6667 64.1333 81.8667 62.9333 79.0667 61.6C77.0667 60.8 74.6667 60 73.7333 60C71.3333 60 69.3333 55.6 69.3333 50C69.3333 44 71.3333 40 74.4 40C75.7333 40 77.3333 39.4667 78.1333 38.8C80.9333 36 95.0667 36 98 38.8Z" fill="white"/>
<path d="M86.6667 50C86.6667 55.7333 87.2001 60 88.0001 60C88.8001 60 89.3334 55.7333 89.3334 50C89.3334 44.2667 88.8001 40 88.0001 40C87.2001 40 86.6667 44.2667 86.6667 50Z" fill="white"/>
<path d="M80.9334 42.2666C79.4667 43.5999 79.8667 57.3333 81.3334 57.3333C82.1334 57.3333 82.6667 53.7333 82.6667 49.3333C82.6667 41.1999 82.5334 40.6666 80.9334 42.2666Z" fill="white"/>
<path d="M93.3333 50.1334C93.3333 55.6 93.8666 58.5334 94.6666 58C95.4666 57.6 95.9999 53.6 95.9999 49.2C95.9999 44.8 95.4666 41.3334 94.6666 41.3334C93.8666 41.3334 93.3333 45.2 93.3333 50.1334Z" fill="white"/>
<path d="M74.2666 44.9333C72.8 46.2666 73.2 54.4 74.6666 55.3333C75.4666 55.8666 76 53.7333 76 50.1333C76 43.8666 75.7333 43.3333 74.2666 44.9333Z" fill="white"/>
<path d="M100 50.8001C100 54.0001 100.533 55.8668 101.333 55.3334C102.133 54.9334 102.667 52.4001 102.667 49.8668C102.667 47.3334 102.133 45.3334 101.333 45.3334C100.667 45.3334 100 47.7334 100 50.8001Z" fill="white"/>
<path d="M106.667 50.6667C106.667 51.4667 111.6 52 118.667 52C125.733 52 130.667 51.4667 130.667 50.6667C130.667 49.8667 125.733 49.3333 118.667 49.3333C111.6 49.3333 106.667 49.8667 106.667 50.6667Z" fill="white"/>
<path d="M86.6666 67.7334C86.6666 72.2667 84.5333 74.6667 80.3999 74.6667C77.5999 74.6667 77.3333 75.2 77.3333 81.3334C77.3333 86.4 77.8666 88 79.3333 88C80.3999 88 81.3333 86.9334 81.3333 85.6C81.3333 82.1334 85.0666 77.3334 87.8666 77.3334C91.3333 77.3334 94.3999 81.3334 94.9333 86.6667C95.5999 94.4 97.9999 91.8667 98.3999 82.9334C98.7999 75.0667 98.6666 74.6667 95.5999 74.6667C91.4666 74.6667 89.3333 72.2667 89.3333 67.7334C89.3333 65.7334 88.7999 64 87.9999 64C87.3333 64 86.6666 65.7334 86.6666 67.7334Z" fill="white"/>
<path d="M61.8666 76.6666C60.5333 79.8666 62.5333 81.3333 68.1333 81.3333C72.8 81.3333 73.3333 80.9333 73.3333 77.9999C73.3333 74.9333 72.8 74.6666 68 74.6666C64.5333 74.6666 62.2666 75.3333 61.8666 76.6666Z" fill="white"/>
<path d="M102.667 77.8666C102.667 81.0666 103.2 81.3333 108.133 81.3333C112.933 81.3333 113.467 81.0666 113.067 78.2666C112.8 75.8666 111.733 75.1999 107.733 74.9333C103.067 74.5333 102.667 74.7999 102.667 77.8666Z" fill="white"/>
<path d="M86.6667 83.7334C86.6667 90.6668 77.7333 94.8001 74.4 89.3334C73.2 87.4668 71.2 86.6668 67.8667 86.6668C63.4667 86.6668 62.8 87.2001 59.6 93.7334C57.6 97.6001 56 101.2 56 101.733C56 102.267 70.1333 102.667 87.3333 102.667C122.667 102.667 121.467 103.067 115.333 92.4001C112.4 87.4668 111.333 86.6668 107.467 86.6668C103.6 86.6668 102.933 87.2001 102.267 90.6668C100.667 98.4001 90.6667 97.2001 90.6667 89.3334C90.6667 84.8001 89.4667 81.3334 87.8667 81.3334C87.2 81.3334 86.6667 82.4001 86.6667 83.7334Z" fill="white"/>
<path d="M58.9333 116.267C62.1333 127.867 64.2666 131.733 68.7999 133.333C70.6666 134.133 79.5999 134.667 88.6666 134.667C104.933 134.667 105.333 134.533 109.2 130.933C111.867 128.533 114.133 124.267 115.867 118.133C117.467 113.2 118.667 108.533 118.667 107.867C118.667 107.2 104.933 106.667 87.4666 106.667H56.2666L58.9333 116.267Z" fill="white"/>
<path d="M329.333 42.8C326.133 44.2667 321.467 46.9333 319.2 48.6667C315.333 51.6 297.733 75.3333 277.2 105.067C272.533 111.867 268.533 116.933 268.4 116.4C268.267 115.867 266.533 101.2 264.533 84C262.667 66.8 260.8 52.4 260.533 52.1333C260.267 51.8667 259.2 52.4 258.133 53.2C256.933 54.2667 254 54.5333 249.6 53.8667C245.6 53.3333 240 53.7333 236 54.6667C223.6 57.6 210.133 73.2 208.4 86.6667C207.733 91.2 209.867 101.333 211.6 101.333C212.133 101.333 218.533 97.2 221.2 95.0667C221.467 94.9333 220.667 91.4667 219.333 87.6C215.067 74.8 218.8 67.2 231.2 63.8667C235.867 62.6667 247.467 63.0667 248.933 64.5333C249.6 65.2 240.533 98.6667 235.867 112.8C230.667 128.8 228 131.2 216.267 131.6C207.733 131.733 207.2 132 204.267 136.267L201.2 140.667L204.667 141.067C211.867 142 222.8 138.533 228.267 133.6C236.4 126.267 239.333 119.867 246 95.3333C249.333 82.9333 252.4 72.5333 252.667 72.2667C253.733 71.2 258.667 119.867 258.667 131.067V137.333L261.867 135.333C263.6 134.133 267.867 128.267 271.333 122.267C277.6 111.467 305.2 70.6667 306.133 70.6667C306.933 70.6667 306.133 73.8667 297.2 107.067C289.333 136.4 288.4 140.667 290.4 141.867C291.733 142.667 319.467 138.267 320.8 136.933C321.333 136.4 318.4 136 314.267 136C307.733 136 306.4 135.6 304.533 132.667C302.4 129.467 302.8 127.867 311.067 94.8C315.867 75.8667 320.933 57.4667 322.533 54L325.333 47.6L331.333 48.2667C336.8 48.9333 337.6 48.6667 340 45.3333C344.267 39.3333 339.6 38.1333 329.333 42.8Z" fill="white"/>
<path d="M476 52.1332C474.133 52.9332 468.267 54.6666 462.8 56.1332C439.333 62.1332 425.333 76.6666 425.333 94.9332C425.333 99.1999 425.6 102.667 426 102.667C426.4 102.667 429.067 101.467 431.867 99.9999C437.067 97.4666 437.067 97.3332 437.067 89.3332C437.067 78.2666 441.333 69.8666 449.333 65.0666C455.6 61.3332 467.333 57.5999 468.667 58.9332C469.6 59.7332 458.667 104.133 454.533 116.933C451.2 126.933 445.2 132.933 437.2 134.133C434.133 134.667 430.133 136.533 428.133 138.267L424.667 141.467L450 140.933C472 140.4 476.4 139.867 483.2 137.333C501.333 130.533 513.6 120.4 519.067 108.133C524.933 94.7999 526.933 80.3999 523.867 72.3999C520.133 62.3999 510.4 57.0666 492 54.7999C486.533 54.1332 481.867 52.9332 481.6 52.1332C481.067 50.3999 480.4 50.3999 476 52.1332ZM498.267 60.1332C503.6 61.8666 509.867 68.7999 512 75.4666C515.467 85.9999 510.267 109.6 502.133 120.4C493.333 132 486.133 134.667 463.6 134.667H447.733L455.867 125.867C464.8 116.133 466.267 112.4 473.333 83.9999C475.6 74.7999 478.133 65.0666 478.8 62.2666L480.133 57.0666L487.067 57.9999C490.933 58.3999 495.867 59.4666 498.267 60.1332Z" fill="white"/>
<path d="M380.8 54.9335C379.467 55.7335 373.733 56.8001 368.133 57.4668C354.667 58.9335 342.4 65.0668 336.8 73.0668C333.467 77.7335 332.8 80.0001 332.8 85.8668C332.933 89.7335 333.467 93.8668 334.133 95.0668C335.333 97.0668 335.867 97.0668 340 94.1335C344.667 91.0668 344.667 90.9335 344.267 82.1335C343.6 71.4668 345.6 67.6001 353.733 63.8668C360.8 60.8001 372 60.4001 372 63.3335C372 68.2668 364.667 94.2668 362.4 97.6001C360.8 100 360.533 101.333 361.467 101.6C362.667 102 362.4 104.8 360.8 112C357.6 126.4 354.267 131.6 344.8 136.533L336.8 140.667L366.133 141.733C400.533 142.933 404.4 142.267 412.8 134C417.467 129.2 421.2 122.133 419.6 120.533C419.467 120.267 416.933 120.8 414.267 121.6C409.733 122.933 409.333 123.6 410 126.533C410.4 128.667 410 131.2 408.8 132.667C407.067 135.2 404.933 135.333 380.8 135.733C366.4 136 354.667 135.733 354.667 135.333C354.667 134.8 357.867 130.933 361.733 126.667C366.933 121.067 369.333 117.2 370.533 112.533C373.867 99.6001 373.333 100 385.067 100C392.133 100 396.267 99.3335 398.133 98.0001C400.4 96.2668 399.333 96.1335 387.467 96.0001C377.6 96.0001 374.533 95.6001 374.933 94.2668C375.333 93.4668 377.333 85.3335 379.333 76.2668L383.067 60.0001H393.6C402.8 60.0001 404.533 60.4001 407.2 63.0668C408.933 64.8001 410.533 67.0668 410.933 68.1335C411.467 69.4668 412.8 68.9335 416.4 65.4668C420.267 61.7335 420.933 60.4001 419.867 58.4001C418.667 56.2668 416.8 56.0001 401.333 56.0001C391.867 56.0001 384 55.4668 383.733 54.8001C383.467 54.0001 382.267 54.1335 380.8 54.9335Z" fill="white"/>
</svg>
