<svg width="180" height="180" viewBox="0 0 180 180" fill="none" xmlns="http://www.w3.org/2000/svg">
<rect width="180" height="180" fill="#242424"/>
<path d="M83.2034 53.1162C84.1919 53.0333 84.7846 52.3604 85.0325 52.0127C85.3294 51.5962 85.5263 51.113 85.6663 50.6914C85.9546 49.8227 86.1734 48.6732 86.343 47.377C86.6865 44.7515 86.8752 41.1414 86.8752 37.0625C86.8752 32.9836 86.6865 29.3735 86.343 26.748C86.1734 25.4518 85.9546 24.3023 85.6663 23.4336C85.5263 23.012 85.3294 22.5288 85.0325 22.1123C84.7681 21.7414 84.1113 21 83.0002 21C81.8892 21 81.2324 21.7414 80.968 22.1123C80.6711 22.5288 80.4742 23.012 80.3342 23.4336C80.0459 24.3023 79.8271 25.4518 79.6575 26.748C79.314 29.3735 79.1252 32.9836 79.1252 37.0625C79.1252 41.1414 79.314 44.7515 79.6575 47.377C79.8271 48.6732 80.0459 49.8227 80.3342 50.6914C80.4742 51.113 80.6711 51.5962 80.968 52.0127C81.2324 52.3836 81.8892 53.125 83.0002 53.125L83.2034 53.1162Z" stroke="white" stroke-width="4"/>
<path d="M73.625 49.375C74.5852 49.375 75.2269 48.8239 75.5518 48.4424C75.8804 48.0564 76.0986 47.609 76.25 47.2305C76.5597 46.4562 76.7864 45.4599 76.959 44.3877C77.3096 42.2088 77.5 39.2827 77.5 36.125C77.5 33.2688 77.4885 31.0464 77.4346 29.3662C77.3823 27.7377 77.2879 26.4448 77.0674 25.5469C76.9633 25.1232 76.7686 24.5031 76.3135 23.9941C76.0587 23.7093 75.7067 23.4413 75.249 23.291C74.7927 23.1412 74.357 23.1491 73.9971 23.2217C73.3567 23.3509 72.8608 23.705 72.5811 23.9238C72.2608 24.1744 71.9416 24.4803 71.6484 24.7734L71.6494 24.7744C71.2671 25.1464 71.0291 25.5841 70.8789 25.9219C70.7082 26.3059 70.5765 26.7279 70.4707 27.1484C70.2589 27.9903 70.1073 29.0074 70 30.0928C69.7843 32.2744 69.726 34.9525 69.7979 37.54C69.8696 40.1229 70.0736 42.6963 70.4053 44.6611C70.5682 45.6265 70.7782 46.5483 71.0625 47.2725C71.2009 47.625 71.4038 48.0545 71.7129 48.4297C72.0117 48.7923 72.645 49.375 73.625 49.375Z" stroke="white" stroke-width="4"/>
<path d="M91.1697 50.2009C91.9905 50.5597 92.7895 50.3885 93.3679 50.0457C93.9615 49.7148 94.3139 49.2102 94.5056 48.8816C94.7324 48.4928 94.9065 48.0559 95.0447 47.6306C95.3229 46.7744 95.5421 45.6996 95.7136 44.5232C96.0592 42.1531 96.2497 39.0998 96.2498 35.9382C96.2498 32.781 96.0597 29.8981 95.7078 27.7615C95.5347 26.7106 95.3055 25.7327 94.991 24.9705C94.8368 24.597 94.6136 24.1547 94.2781 23.7742C93.9409 23.3919 93.3048 22.8757 92.3748 22.8757C91.3532 22.8757 90.7035 23.5012 90.4021 23.8826C90.0864 24.2821 89.8774 24.745 89.7312 25.1404C89.4312 25.952 89.208 27.0085 89.0369 28.1697C88.6896 30.5264 88.4998 33.7256 88.4998 37.2507C88.4998 41.1309 88.6873 44.2191 89.0447 46.2869C89.2148 47.2712 89.4581 48.2498 89.8689 48.9714C90.0666 49.3187 90.4598 49.8905 91.1697 50.2009Z" stroke="white" stroke-width="4"/>
<path d="M63.1765 46.249C63.6188 46.5344 64.2393 46.7612 64.9636 46.6475C65.6844 46.5342 66.193 46.133 66.5066 45.7832C67.0744 45.1498 67.3679 44.285 67.5476 43.5791C67.9368 42.0498 68.1248 39.8392 68.1248 37.25C68.1248 35.0427 68.1014 33.2986 68.031 31.9678C67.9642 30.7042 67.8486 29.5903 67.5681 28.7861C67.4314 28.3943 67.1534 27.7661 66.5388 27.3203C65.7826 26.7719 64.9365 26.7838 64.3054 26.9941C63.7749 27.1711 63.3557 27.492 63.0837 27.7246C62.7854 27.9798 62.4905 28.2828 62.2126 28.5859L62.2136 28.5869C61.6822 29.1252 61.3593 29.7999 61.1531 30.373C60.9166 31.0305 60.7518 31.7736 60.6375 32.5303C60.4082 34.047 60.3494 35.8275 60.4236 37.5469C60.4978 39.2656 60.7085 41.012 61.0574 42.457C61.231 43.1761 61.4527 43.8798 61.74 44.4883C61.9971 45.0328 62.4238 45.7548 63.1404 46.2256V46.2266C63.1457 46.2301 63.1516 46.2328 63.157 46.2363C63.1635 46.2406 63.1699 46.2458 63.1765 46.25V46.249Z" stroke="white" stroke-width="4"/>
<path d="M101.21 46.6836C101.83 46.726 102.356 46.5333 102.752 46.293C103.573 45.8378 104.047 45.0529 104.316 44.501C104.633 43.8501 104.873 43.084 105.057 42.2979C105.426 40.7157 105.625 38.7787 105.625 36.875C105.625 34.9803 105.428 33.1872 105.032 31.8018C104.838 31.1221 104.561 30.4138 104.144 29.8311C103.74 29.2673 102.958 28.5 101.75 28.5C101 28.5 100.433 28.8425 100.085 29.1465C99.7425 29.4457 99.499 29.7992 99.3264 30.1006C98.9793 30.7068 98.7196 31.459 98.5227 32.2334C98.1215 33.8113 97.8752 35.9043 97.8752 38.1875C97.8753 40.5009 98.0634 42.5059 98.4709 43.9033C98.6579 44.5442 98.9804 45.3893 99.6262 45.9854C99.9925 46.3234 100.527 46.6367 101.21 46.6836Z" stroke="white" stroke-width="4"/>
<path d="M126.125 41.875C131.131 41.875 135.43 41.6869 138.508 41.3477C140.032 41.1797 141.34 40.9655 142.307 40.6914C142.775 40.5587 143.288 40.3776 143.728 40.1084C144.059 39.9052 145 39.2511 145 38C145 36.7489 144.059 36.0948 143.728 35.8916C143.288 35.6224 142.775 35.4413 142.307 35.3086C141.34 35.0345 140.032 34.8203 138.508 34.6523C135.43 34.3131 131.131 34.125 126.125 34.125C121.119 34.125 116.82 34.3131 113.742 34.6523C112.218 34.8203 110.91 35.0345 109.943 35.3086C109.475 35.4413 108.962 35.6224 108.522 35.8916C108.212 36.0821 107.365 36.6689 107.261 37.7725L107.25 38L107.261 38.2275C107.365 39.3311 108.212 39.9179 108.522 40.1084C108.962 40.3776 109.475 40.5587 109.943 40.6914C110.91 40.9655 112.218 41.1797 113.742 41.3477C116.82 41.6869 121.119 41.875 126.125 41.875Z" stroke="white" stroke-width="4"/>
<path d="M55.0625 79.3347C56.6936 79.3347 57.8182 79.2977 58.6221 79.2029C58.9403 79.1653 59.1599 79.1207 59.3066 79.0857C59.3443 78.8173 59.375 78.3773 59.375 77.6472C59.375 76.912 59.3454 76.4597 59.3096 76.1785C59.1523 76.1456 58.9223 76.104 58.5947 76.071C57.7436 75.9854 56.5702 75.9597 54.875 75.9597C52.5817 75.9597 50.9121 76.1859 49.8525 76.5222C49.3796 76.6724 49.1443 76.8048 49.041 76.8748L49.0195 76.9265L48.9033 77.2224C48.672 77.8616 48.683 78.1736 48.6943 78.2527C48.7087 78.268 48.7373 78.2948 48.7871 78.3318C49.0175 78.5027 49.5665 78.7804 50.6777 78.9988C51.7635 79.2121 53.2072 79.3347 55.0625 79.3347Z" stroke="white" stroke-width="6"/>
<path d="M111.312 79.3347C113.005 79.3347 114.186 79.3096 115.037 79.2283C115.161 79.2164 115.271 79.2038 115.368 79.1912C115.349 78.985 115.322 78.7395 115.28 78.446L115.273 78.4001L115.269 78.3533C115.128 77.0899 114.887 77.0998 114.879 77.0974C114.471 76.8427 113.416 76.5189 110.551 76.3279L110.494 76.324C108.847 76.1828 107.732 76.1155 106.94 76.1345C106.836 76.137 106.743 76.1413 106.662 76.1462C106.64 76.4414 106.625 76.8601 106.625 77.4597C106.625 78.2998 106.656 78.7983 106.7 79.1003C106.863 79.1368 107.114 79.184 107.485 79.2214C108.362 79.3098 109.569 79.3347 111.312 79.3347Z" stroke="white" stroke-width="6"/>
<path d="M82.0625 109.335C94.5162 109.335 103.667 109.369 110.309 109.189C117.105 109.005 120.77 108.592 122.581 107.926C122.839 107.831 123.008 107.746 123.115 107.685C123.1 107.597 123.076 107.475 123.029 107.315C122.829 106.621 122.386 105.654 121.626 104.26C120.877 102.888 119.959 101.344 118.858 99.4304C116.751 95.8866 115.627 94.4176 114.627 93.6863C113.855 93.1215 112.934 92.8347 110.375 92.8347C109.047 92.8347 108.178 92.8835 107.57 92.9861C107.282 93.0349 107.102 93.0888 106.996 93.1296C106.898 93.1676 106.866 93.1926 106.865 93.1931C106.85 93.2048 106.503 93.4574 106.009 96.0261L106.005 96.0476L106 96.0681C104.568 102.989 99.0948 106.359 93.7129 105.728C88.3664 105.101 83.75 100.599 83.75 93.5847C83.75 92.2083 83.6625 90.9414 83.5146 89.8181C82.2277 94.0468 79.0551 97.285 75.5098 98.9128C70.8795 101.039 64.7342 100.683 61.3516 95.2068C60.4668 93.8306 58.9257 92.8347 54.6875 92.8347C51.5548 92.8347 50.8332 93.0933 50.1865 93.6433C49.7621 94.0044 49.227 94.6416 48.4795 95.8875C47.7351 97.1281 46.8826 98.7931 45.7568 101.092L45.7422 101.122L45.7275 101.151L44.7188 103.132C43.7442 105.077 42.8798 106.897 42.2139 108.383C42.1842 108.449 42.1557 108.514 42.127 108.579C44.2871 108.721 47.3213 108.852 51.0488 108.962C59.0028 109.195 69.9876 109.335 82.0625 109.335Z" stroke="white" stroke-width="6"/>
<path d="M83.9373 154.335C95.5286 154.335 101.031 154.274 104.369 153.658C105.908 153.374 106.837 152.991 107.64 152.492C108.527 151.942 109.375 151.187 110.768 149.889L110.787 149.872L110.805 149.855C113.934 147.04 116.922 141.686 119.301 133.269L119.316 133.214L119.334 133.159C120.442 129.741 121.412 126.415 122.102 123.84C122.284 123.163 122.444 122.542 122.582 121.989C122.538 121.985 122.493 121.98 122.448 121.975C120.334 121.781 117.215 121.602 113.283 121.45C105.435 121.147 94.506 120.96 82.2498 120.96H42.322L45.0154 130.657L45.0164 130.662C47.2664 138.818 49.0601 143.924 50.9617 147.241C52.755 150.369 54.5627 151.771 56.9978 152.631L57.0906 152.664L57.1814 152.702C57.1814 152.702 57.1998 152.71 57.241 152.724C57.2831 152.739 57.3413 152.757 57.4177 152.778C57.5729 152.822 57.7784 152.872 58.0388 152.926C58.5618 153.034 59.2399 153.144 60.0691 153.253C61.726 153.47 63.8701 153.663 66.366 153.825C71.3517 154.148 77.6137 154.335 83.9373 154.335Z" stroke="white" stroke-width="6"/>
<path d="M81.125 63.2096C81.125 69.5846 78.125 72.9596 72.3125 72.9596C68.375 72.9596 68 73.7096 68 82.3346C68 89.4596 68.75 91.7096 70.8125 91.7096C72.3125 91.7096 73.625 90.2096 73.625 88.3346C73.625 83.4596 78.875 76.7096 82.8125 76.7096C87.6875 76.7096 92 82.3346 92.75 89.8346C93.6875 100.71 97.0625 97.1471 97.625 84.5846C98.1875 73.5221 98 72.9596 93.6875 72.9596C87.875 72.9596 84.875 69.5846 84.875 63.2096C84.875 60.3971 84.125 57.9596 83 57.9596C82.0625 57.9596 81.125 60.3971 81.125 63.2096Z" fill="white"/>
</svg>
