<svg width="180" height="180" viewBox="0 0 180 180" fill="none" xmlns="http://www.w3.org/2000/svg">
<g clip-path="url(#clip0_2002_130)">
<rect x="15" y="16" width="157" height="148" fill="white"/>
<path d="M0 90V180H90H180V90V-9.38773e-06H90H0V90ZM95.3333 38.8C96 39.4667 97.6 40 98.8 40C100 40 101.733 40.9333 102.667 42C103.867 43.4667 108 44 118.4 44.2667L132.667 44.6667V50V55.3333L118.4 55.7333C108 56 103.867 56.5333 102.667 58C101.733 59.0667 100.267 60 99.4667 60C98.5333 60 96.2667 60.8 94.2667 61.6C91.4667 62.9333 90.6667 64.1333 90.9333 66.6667C91.3333 69.7333 91.8667 70 99.3333 70.4C103.733 70.5333 108.667 70.9333 110.4 71.3333C114.267 72.2667 116.4 77.6 114.533 81.8667C113.333 84.5333 113.6 86 116.4 90.8C121.467 99.7333 121.733 103.333 118.133 116.4C112.267 137.733 110.267 139.067 83.2 138.4L64 138L59.8667 133.867C56.9333 130.933 54.9333 126.533 52.5333 118.667C48.4 104.267 48.5333 100.667 53.2 91.7333C55.8667 86.8 56.6667 83.8667 55.8667 82.5333C54 79.4667 54.5333 75.2 57.0667 72.9333C58.6667 71.4667 62.5333 70.6667 69.3333 70.4C78.9333 70 79.3333 69.8667 79.7333 66.6667C80 64.1333 79.2 62.9333 76.4 61.6C74.4 60.8 72 60 71.0667 60C68.6667 60 66.6667 55.6 66.6667 50C66.6667 44 68.6667 40 71.7333 40C73.0667 40 74.6667 39.4667 75.4667 38.8C78.2667 36 92.4 36 95.3333 38.8Z" fill="#242424"/>
<path d="M84 50C84 55.7333 84.5333 60 85.3333 60C86.1333 60 86.6667 55.7333 86.6667 50C86.6667 44.2667 86.1333 40 85.3333 40C84.5333 40 84 44.2667 84 50Z" fill="#242424"/>
<path d="M78.2666 42.2666C76.8 43.5999 77.2 57.3333 78.6666 57.3333C79.4666 57.3333 80 53.7333 80 49.3333C80 41.1999 79.8666 40.6666 78.2666 42.2666Z" fill="#242424"/>
<path d="M90.6667 50.1334C90.6667 55.6 91.2001 58.5334 92.0001 58C92.8001 57.6 93.3334 53.6 93.3334 49.2C93.3334 44.8 92.8001 41.3334 92.0001 41.3334C91.2001 41.3334 90.6667 45.2 90.6667 50.1334Z" fill="#242424"/>
<path d="M71.5999 44.9333C70.1332 46.2666 70.5332 54.4 71.9999 55.3333C72.7999 55.8666 73.3332 53.7333 73.3332 50.1333C73.3332 43.8666 73.0666 43.3333 71.5999 44.9333Z" fill="#242424"/>
<path d="M97.3333 50.8001C97.3333 54.0001 97.8666 55.8668 98.6666 55.3334C99.4666 54.9334 99.9999 52.4001 99.9999 49.8668C99.9999 47.3334 99.4666 45.3334 98.6666 45.3334C97.9999 45.3334 97.3333 47.7334 97.3333 50.8001Z" fill="#242424"/>
<path d="M104 50.6667C104 51.4667 108.933 52 116 52C123.067 52 128 51.4667 128 50.6667C128 49.8667 123.067 49.3333 116 49.3333C108.933 49.3333 104 49.8667 104 50.6667Z" fill="#242424"/>
<path d="M84.0001 67.7334C84.0001 72.2667 81.8667 74.6667 77.7334 74.6667C74.9334 74.6667 74.6667 75.2 74.6667 81.3334C74.6667 86.4 75.2001 88 76.6667 88C77.7334 88 78.6667 86.9334 78.6667 85.6C78.6667 82.1334 82.4001 77.3334 85.2001 77.3334C88.6667 77.3334 91.7334 81.3334 92.2667 86.6667C92.9334 94.4 95.3334 91.8667 95.7334 82.9334C96.1334 75.0667 96.0001 74.6667 92.9334 74.6667C88.8001 74.6667 86.6667 72.2667 86.6667 67.7334C86.6667 65.7334 86.1334 64 85.3334 64C84.6667 64 84.0001 65.7334 84.0001 67.7334Z" fill="#242424"/>
<path d="M59.1999 76.6666C57.8666 79.8666 59.8666 81.3333 65.4666 81.3333C70.1332 81.3333 70.6666 80.9333 70.6666 77.9999C70.6666 74.9333 70.1332 74.6666 65.3332 74.6666C61.8666 74.6666 59.5999 75.3333 59.1999 76.6666Z" fill="#242424"/>
<path d="M100 77.8666C100 81.0666 100.533 81.3333 105.467 81.3333C110.267 81.3333 110.8 81.0666 110.4 78.2666C110.133 75.8666 109.067 75.1999 105.067 74.9333C100.4 74.5333 100 74.7999 100 77.8666Z" fill="#242424"/>
<path d="M83.9999 83.7334C83.9999 90.6668 75.0666 94.8001 71.7333 89.3334C70.5333 87.4668 68.5333 86.6668 65.1999 86.6668C60.7999 86.6668 60.1333 87.2001 56.9333 93.7334C54.9333 97.6001 53.3333 101.2 53.3333 101.733C53.3333 102.267 67.4666 102.667 84.6666 102.667C120 102.667 118.8 103.067 112.667 92.4001C109.733 87.4668 108.667 86.6668 104.8 86.6668C100.933 86.6668 100.267 87.2001 99.5999 90.6668C97.9999 98.4001 87.9999 97.2001 87.9999 89.3334C87.9999 84.8001 86.7999 81.3334 85.1999 81.3334C84.5333 81.3334 83.9999 82.4001 83.9999 83.7334Z" fill="#242424"/>
<path d="M56.2668 116.267C59.4668 127.867 61.6001 131.733 66.1334 133.333C68.0001 134.133 76.9334 134.667 86.0001 134.667C102.267 134.667 102.667 134.533 106.533 130.933C109.2 128.533 111.467 124.267 113.2 118.133C114.8 113.2 116 108.533 116 107.867C116 107.2 102.267 106.667 84.8001 106.667H53.6001L56.2668 116.267Z" fill="#242424"/>
</g>
<defs>
<clipPath id="clip0_2002_130">
<rect width="180" height="180" fill="white"/>
</clipPath>
</defs>
</svg>
