<svg width="534" height="180" viewBox="0 0 534 180" fill="none" xmlns="http://www.w3.org/2000/svg">
<g clip-path="url(#clip0_2007_113)">
<path d="M80.2034 53.1162C81.1919 53.0333 81.7846 52.3604 82.0325 52.0127C82.3294 51.5962 82.5263 51.113 82.6663 50.6914C82.9546 49.8227 83.1734 48.6732 83.343 47.377C83.6865 44.7515 83.8752 41.1414 83.8752 37.0625C83.8752 32.9836 83.6865 29.3735 83.343 26.748C83.1734 25.4518 82.9546 24.3023 82.6663 23.4336C82.5263 23.012 82.3294 22.5288 82.0325 22.1123C81.7681 21.7414 81.1113 21 80.0002 21C78.8892 21 78.2324 21.7414 77.968 22.1123C77.6711 22.5288 77.4742 23.012 77.3342 23.4336C77.0459 24.3023 76.8271 25.4518 76.6575 26.748C76.314 29.3735 76.1252 32.9836 76.1252 37.0625C76.1252 41.1414 76.314 44.7515 76.6575 47.377C76.8271 48.6732 77.0459 49.8227 77.3342 50.6914C77.4742 51.113 77.6711 51.5962 77.968 52.0127C78.2324 52.3836 78.8892 53.125 80.0002 53.125L80.2034 53.1162Z" stroke="#242424" stroke-width="4"/>
<path d="M70.625 49.375C71.5852 49.375 72.2269 48.8239 72.5518 48.4424C72.8804 48.0564 73.0986 47.609 73.25 47.2305C73.5597 46.4562 73.7864 45.4599 73.959 44.3877C74.3096 42.2088 74.5 39.2827 74.5 36.125C74.5 33.2688 74.4885 31.0464 74.4346 29.3662C74.3823 27.7377 74.2879 26.4448 74.0674 25.5469C73.9633 25.1232 73.7686 24.5031 73.3135 23.9941C73.0587 23.7093 72.7067 23.4413 72.249 23.291C71.7927 23.1412 71.357 23.1491 70.9971 23.2217C70.3567 23.3509 69.8608 23.705 69.5811 23.9238C69.2608 24.1744 68.9416 24.4803 68.6484 24.7734L68.6494 24.7744C68.2671 25.1464 68.0291 25.5841 67.8789 25.9219C67.7082 26.3059 67.5765 26.7279 67.4707 27.1484C67.2589 27.9903 67.1073 29.0074 67 30.0928C66.7843 32.2744 66.726 34.9525 66.7979 37.54C66.8696 40.1229 67.0736 42.6963 67.4053 44.6611C67.5682 45.6265 67.7782 46.5483 68.0625 47.2725C68.2009 47.625 68.4038 48.0545 68.7129 48.4297C69.0117 48.7923 69.645 49.375 70.625 49.375Z" stroke="#242424" stroke-width="4"/>
<path d="M88.1697 50.2009C88.9905 50.5597 89.7895 50.3885 90.3679 50.0457C90.9615 49.7148 91.3139 49.2102 91.5056 48.8816C91.7324 48.4928 91.9065 48.0559 92.0447 47.6306C92.3229 46.7744 92.5421 45.6996 92.7136 44.5232C93.0592 42.1531 93.2497 39.0998 93.2498 35.9382C93.2498 32.781 93.0597 29.8981 92.7078 27.7615C92.5347 26.7106 92.3055 25.7327 91.991 24.9705C91.8368 24.597 91.6136 24.1547 91.2781 23.7742C90.9409 23.3919 90.3048 22.8757 89.3748 22.8757C88.3532 22.8757 87.7035 23.5012 87.4021 23.8826C87.0864 24.2821 86.8774 24.745 86.7312 25.1404C86.4312 25.952 86.208 27.0085 86.0369 28.1697C85.6896 30.5264 85.4998 33.7256 85.4998 37.2507C85.4998 41.1309 85.6873 44.2191 86.0447 46.2869C86.2148 47.2712 86.4581 48.2498 86.8689 48.9714C87.0666 49.3187 87.4598 49.8905 88.1697 50.2009Z" stroke="#242424" stroke-width="4"/>
<path d="M60.1765 46.249C60.6188 46.5344 61.2393 46.7612 61.9636 46.6475C62.6844 46.5342 63.193 46.133 63.5066 45.7832C64.0744 45.1498 64.3679 44.285 64.5476 43.5791C64.9368 42.0498 65.1248 39.8392 65.1248 37.25C65.1248 35.0427 65.1014 33.2986 65.031 31.9678C64.9642 30.7042 64.8486 29.5903 64.5681 28.7861C64.4314 28.3943 64.1534 27.7661 63.5388 27.3203C62.7826 26.7719 61.9365 26.7838 61.3054 26.9941C60.7749 27.1711 60.3557 27.492 60.0837 27.7246C59.7854 27.9798 59.4905 28.2828 59.2126 28.5859L59.2136 28.5869C58.6822 29.1252 58.3593 29.7999 58.1531 30.373C57.9166 31.0305 57.7518 31.7736 57.6375 32.5303C57.4082 34.047 57.3494 35.8275 57.4236 37.5469C57.4978 39.2656 57.7085 41.012 58.0574 42.457C58.231 43.1761 58.4527 43.8798 58.74 44.4883C58.9971 45.0328 59.4238 45.7548 60.1404 46.2256V46.2266C60.1457 46.2301 60.1516 46.2328 60.157 46.2363C60.1635 46.2406 60.1699 46.2458 60.1765 46.25V46.249Z" stroke="#242424" stroke-width="4"/>
<path d="M98.2102 46.6836C98.8298 46.726 99.356 46.5333 99.7522 46.293C100.573 45.8378 101.047 45.0529 101.316 44.501C101.633 43.8501 101.873 43.084 102.057 42.2979C102.426 40.7157 102.625 38.7787 102.625 36.875C102.625 34.9803 102.428 33.1872 102.032 31.8018C101.838 31.1221 101.561 30.4138 101.144 29.8311C100.74 29.2673 99.9577 28.5 98.7502 28.5C97.9996 28.5 97.4335 28.8425 97.0852 29.1465C96.7425 29.4457 96.499 29.7992 96.3264 30.1006C95.9793 30.7068 95.7196 31.459 95.5227 32.2334C95.1215 33.8113 94.8752 35.9043 94.8752 38.1875C94.8753 40.5009 95.0634 42.5059 95.4709 43.9033C95.6579 44.5442 95.9804 45.3893 96.6262 45.9854C96.9925 46.3234 97.5266 46.6367 98.2102 46.6836Z" stroke="#242424" stroke-width="4"/>
<path d="M123.125 41.875C128.131 41.875 132.43 41.6869 135.508 41.3477C137.032 41.1797 138.34 40.9655 139.307 40.6914C139.775 40.5587 140.288 40.3776 140.728 40.1084C141.059 39.9052 142 39.2511 142 38C142 36.7489 141.059 36.0948 140.728 35.8916C140.288 35.6224 139.775 35.4413 139.307 35.3086C138.34 35.0345 137.032 34.8203 135.508 34.6523C132.43 34.3131 128.131 34.125 123.125 34.125C118.119 34.125 113.82 34.3131 110.742 34.6523C109.218 34.8203 107.91 35.0345 106.943 35.3086C106.475 35.4413 105.962 35.6224 105.522 35.8916C105.212 36.0821 104.365 36.6689 104.261 37.7725L104.25 38L104.261 38.2275C104.365 39.3311 105.212 39.9179 105.522 40.1084C105.962 40.3776 106.475 40.5587 106.943 40.6914C107.91 40.9655 109.218 41.1797 110.742 41.3477C113.82 41.6869 118.119 41.875 123.125 41.875Z" stroke="#242424" stroke-width="4"/>
<path d="M52.0625 79.3347C53.6936 79.3347 54.8182 79.2977 55.6221 79.2029C55.9403 79.1653 56.1599 79.1207 56.3066 79.0857C56.3443 78.8173 56.375 78.3773 56.375 77.6472C56.375 76.912 56.3454 76.4597 56.3096 76.1785C56.1523 76.1456 55.9223 76.104 55.5947 76.071C54.7436 75.9854 53.5702 75.9597 51.875 75.9597C49.5817 75.9597 47.9121 76.1859 46.8525 76.5222C46.3796 76.6724 46.1443 76.8048 46.041 76.8748L46.0195 76.9265L45.9033 77.2224C45.672 77.8616 45.683 78.1736 45.6943 78.2527C45.7087 78.268 45.7373 78.2948 45.7871 78.3318C46.0175 78.5027 46.5665 78.7804 47.6777 78.9988C48.7635 79.2121 50.2072 79.3347 52.0625 79.3347Z" stroke="#242424" stroke-width="6"/>
<path d="M108.312 79.3347C110.005 79.3347 111.186 79.3096 112.037 79.2283C112.161 79.2164 112.271 79.2038 112.368 79.1912C112.349 78.985 112.322 78.7395 112.28 78.446L112.273 78.4001L112.269 78.3533C112.128 77.0899 111.887 77.0998 111.879 77.0974C111.471 76.8427 110.416 76.5189 107.551 76.3279L107.494 76.324C105.847 76.1828 104.732 76.1155 103.94 76.1345C103.836 76.137 103.743 76.1413 103.662 76.1462C103.64 76.4414 103.625 76.8601 103.625 77.4597C103.625 78.2998 103.656 78.7983 103.7 79.1003C103.863 79.1368 104.114 79.184 104.485 79.2214C105.362 79.3098 106.569 79.3347 108.312 79.3347Z" stroke="#242424" stroke-width="6"/>
<path d="M79.0625 109.335C91.5162 109.335 100.667 109.369 107.309 109.189C114.105 109.005 117.77 108.592 119.581 107.925C119.839 107.83 120.008 107.746 120.115 107.685C120.1 107.597 120.076 107.475 120.029 107.315C119.829 106.621 119.386 105.654 118.626 104.26C117.877 102.888 116.959 101.344 115.858 99.4303C113.751 95.8865 112.627 94.4174 111.627 93.6862C110.855 93.1214 109.934 92.8346 107.375 92.8346C106.047 92.8346 105.178 92.8834 104.57 92.986C104.282 93.0347 104.102 93.0886 103.996 93.1295C103.898 93.1674 103.866 93.1924 103.865 93.193C103.85 93.2047 103.503 93.4573 103.009 96.026L103.005 96.0475L103 96.068C101.568 102.988 96.0948 106.359 90.7129 105.728C85.3664 105.101 80.75 100.598 80.75 93.5846C80.75 92.2081 80.6625 90.9413 80.5146 89.818C79.2277 94.0467 76.0551 97.2849 72.5098 98.9127C67.8795 101.039 61.7342 100.683 58.3516 95.2067C57.4668 93.8305 55.9257 92.8346 51.6875 92.8346C48.5548 92.8346 47.8332 93.0932 47.1865 93.6432C46.7621 94.0042 46.227 94.6415 45.4795 95.8873C44.7351 97.128 43.8826 98.793 42.7568 101.091L42.7422 101.122L42.7275 101.151L41.7188 103.131C40.7442 105.077 39.8798 106.897 39.2139 108.382C39.1842 108.449 39.1557 108.514 39.127 108.579C41.2871 108.721 44.3213 108.852 48.0488 108.962C56.0028 109.195 66.9876 109.335 79.0625 109.335Z" stroke="#242424" stroke-width="6"/>
<path d="M80.9373 154.335C92.5286 154.335 98.0315 154.274 101.369 153.658C102.908 153.374 103.837 152.991 104.64 152.492C105.527 151.942 106.375 151.187 107.768 149.889L107.787 149.872L107.805 149.855C110.934 147.04 113.922 141.686 116.301 133.269L116.316 133.214L116.334 133.159C117.442 129.741 118.412 126.415 119.102 123.84C119.284 123.163 119.444 122.542 119.582 121.989C119.538 121.985 119.493 121.98 119.448 121.975C117.334 121.781 114.215 121.602 110.283 121.45C102.435 121.147 91.506 120.96 79.2498 120.96H39.322L42.0154 130.657L42.0164 130.662C44.2664 138.818 46.0601 143.924 47.9617 147.241C49.755 150.369 51.5627 151.771 53.9978 152.631L54.0906 152.664L54.1814 152.702C54.1814 152.702 54.1998 152.71 54.241 152.724C54.2831 152.739 54.3413 152.757 54.4177 152.778C54.5729 152.822 54.7784 152.872 55.0388 152.926C55.5618 153.034 56.2399 153.144 57.0691 153.253C58.726 153.47 60.8701 153.663 63.366 153.825C68.3517 154.148 74.6137 154.335 80.9373 154.335Z" stroke="#242424" stroke-width="6"/>
<path d="M78.125 63.2097C78.125 69.5847 75.125 72.9597 69.3125 72.9597C65.375 72.9597 65 73.7097 65 82.3347C65 89.4597 65.75 91.7097 67.8125 91.7097C69.3125 91.7097 70.625 90.2097 70.625 88.3347C70.625 83.4597 75.875 76.7097 79.8125 76.7097C84.6875 76.7097 89 82.3347 89.75 89.8347C90.6875 100.71 94.0625 97.1472 94.625 84.5847C95.1875 73.5222 95 72.9597 90.6875 72.9597C84.875 72.9597 81.875 69.5847 81.875 63.2097C81.875 60.3972 81.125 57.9597 80 57.9597C79.0625 57.9597 78.125 60.3972 78.125 63.2097Z" fill="#242424"/>
<mask id="path-12-outside-1_2007_113" maskUnits="userSpaceOnUse" x="141" y="33" width="327" height="127" fill="black">
<rect fill="white" x="141" y="33" width="327" height="127"/>
<path d="M153.09 152.7C150.937 152.7 149.463 152.077 148.67 150.83C147.877 149.583 147.48 148.223 147.48 146.75C147.48 139.723 148.16 131.677 149.52 122.61C150.993 113.543 152.75 104.533 154.79 95.58C156.603 87.9867 158.587 80.9033 160.74 74.33C163.007 67.7567 164.99 62.3733 166.69 58.18C169.183 52.2867 172.017 47.81 175.19 44.75C178.477 41.5767 182.273 39.99 186.58 39.99C189.753 39.99 192.587 41.0667 195.08 43.22C197.573 45.26 199.047 49 199.5 54.44C200.18 61.0133 200.973 67.6433 201.88 74.33C202.787 81.0167 203.807 87.1367 204.94 92.69C206.073 98.13 207.263 102.323 208.51 105.27C209.53 107.877 211.003 109.18 212.93 109.18C215.083 109.18 216.953 107.82 218.54 105.1C220.013 102.607 221.6 99.2067 223.3 94.9C225 90.5933 226.643 86.06 228.23 81.3C229.93 76.4267 231.403 72.0067 232.65 68.04C234.123 63.7333 235.767 59.4267 237.58 55.12C239.507 50.7 241.943 47.0733 244.89 44.24C247.837 41.2933 251.52 39.82 255.94 39.82C260.02 39.82 262.91 41.2367 264.61 44.07C266.423 46.79 267.33 51.1533 267.33 57.16C267.33 61.8067 267.16 66.68 266.82 71.78C266.707 74.7267 266.537 77.7867 266.31 80.96C266.197 84.02 266.14 87.1933 266.14 90.48C266.14 95.58 266.367 100.963 266.82 106.63C267.387 112.297 268.407 117.623 269.88 122.61C271.467 127.597 273.79 131.79 276.85 135.19C277.757 135.983 278.55 136.89 279.23 137.91C280.023 138.93 280.42 140.063 280.42 141.31C280.42 144.143 278.89 146.75 275.83 149.13C272.883 151.397 269.483 152.53 265.63 152.53C262.117 152.53 259.51 151.397 257.81 149.13C256.11 146.863 254.75 143.803 253.73 139.95C252.597 135.19 251.803 130.09 251.35 124.65C250.897 119.21 250.67 113.94 250.67 108.84C250.67 100.68 250.953 93.2 251.52 86.4C252.2 79.4867 252.54 74.3867 252.54 71.1C252.54 69.2867 252.37 67.9833 252.03 67.19C251.69 66.2833 250.84 65.83 249.48 65.83C247.893 65.83 246.533 66.5667 245.4 68.04C244.38 69.4 243.53 71.3267 242.85 73.82C241.377 78.58 239.733 83.68 237.92 89.12C236.107 94.56 234.18 99.8867 232.14 105.1C230.213 110.313 228.117 114.96 225.85 119.04C223.243 123.8 220.41 127.03 217.35 128.73C214.403 130.317 211.4 131.11 208.34 131.11C203.58 131.11 199.953 129.637 197.46 126.69C195.08 123.63 193.323 120.287 192.19 116.66C190.717 111.787 189.357 105.44 188.11 97.62C186.863 89.6867 185.957 80.79 185.39 70.93C185.163 66.7367 183.803 64.64 181.31 64.64C178.59 64.64 176.437 66.68 174.85 70.76C173.49 74.84 172.187 79.6567 170.94 85.21C169.693 90.65 168.673 96.3733 167.88 102.38C167.2 108.273 166.86 114.11 166.86 119.89C166.86 124.763 167.03 129.013 167.37 132.64C167.823 136.267 168.05 139.667 168.05 142.84C168.05 145.107 167.143 146.977 165.33 148.45C163.63 149.923 161.59 151 159.21 151.68C156.83 152.36 154.79 152.7 153.09 152.7ZM324.918 153.21C314.151 153.21 306.161 151.51 300.948 148.11C295.848 144.597 293.298 138.08 293.298 128.56C293.298 126.633 293.411 124.31 293.638 121.59C293.978 118.87 294.431 115.583 294.998 111.73C295.904 106.177 296.584 101.247 297.038 96.94C297.491 92.52 297.718 87.7033 297.718 82.49C297.718 79.09 297.604 75.8033 297.378 72.63C297.264 69.4567 296.981 66.4533 296.528 63.62C294.828 63.96 293.694 64.13 293.128 64.13C292.221 64.13 291.598 63.96 291.258 63.62C290.918 63.1667 290.748 62.3733 290.748 61.24C290.748 58.86 291.031 56.5367 291.598 54.27C292.164 51.89 292.958 49.9633 293.978 48.49C295.904 45.77 298.851 44.1833 302.818 43.73C305.878 43.39 309.618 43.05 314.038 42.71C318.571 42.37 323.161 42.1433 327.808 42.03C332.568 41.8033 336.818 41.69 340.558 41.69C350.984 41.69 357.161 41.9167 359.088 42.37C362.034 42.8233 363.508 44.41 363.508 47.13C363.508 50.53 362.318 53.6467 359.938 56.48C358.691 58.18 357.444 59.4267 356.198 60.22C354.951 60.9 353.194 61.1833 350.928 61.07C345.941 60.73 341.578 60.5033 337.838 60.39C334.098 60.2767 331.491 60.22 330.018 60.22C327.411 60.22 324.691 60.2767 321.858 60.39C319.138 60.5033 316.361 60.6733 313.528 60.9C313.528 64.8667 313.358 69.1167 313.018 73.65C312.678 78.1833 312.224 82.9433 311.658 87.93C316.871 87.59 322.764 87.3633 329.338 87.25C335.911 87.0233 341.748 86.91 346.848 86.91C349.114 86.91 350.644 87.1367 351.438 87.59C352.344 88.0433 352.798 89.2333 352.798 91.16C352.798 92.9733 352.288 95.0133 351.268 97.28C350.361 99.4333 349.114 101.303 347.528 102.89C346.848 103.57 346.111 104.137 345.318 104.59C344.524 104.93 343.448 105.043 342.088 104.93C337.214 104.703 331.661 104.533 325.428 104.42C319.308 104.307 313.924 104.307 309.278 104.42C308.824 107.027 308.484 109.407 308.258 111.56C308.031 113.713 307.918 115.64 307.918 117.34C307.918 123.573 309.504 127.937 312.678 130.43C315.851 132.923 321.064 134.17 328.317 134.17C332.738 134.17 336.988 133.773 341.068 132.98C345.261 132.187 349.511 130.713 353.818 128.56C355.404 127.653 356.594 127.2 357.388 127.2C358.634 127.2 359.824 128.107 360.958 129.92C362.204 131.62 362.828 133.49 362.828 135.53C362.828 138.023 361.864 140.403 359.938 142.67C358.124 144.823 355.688 146.693 352.628 148.28C349.114 149.867 344.921 151.057 340.048 151.85C335.174 152.757 330.131 153.21 324.918 153.21ZM400.793 153.21C396.6 153.21 392.747 152.813 389.233 152.02C385.72 151.227 382.83 149.753 380.563 147.6C378.863 146.013 377.73 144.257 377.163 142.33C376.597 140.29 376.313 138.08 376.313 135.7C376.313 131.847 376.653 127.993 377.333 124.14C378.353 117.453 379.26 110.257 380.053 102.55C380.847 94.8433 381.243 87.7033 381.243 81.13C381.243 79.09 381.13 76.7667 380.903 74.16C380.79 71.5533 380.563 69.1167 380.223 66.85C379.43 67.19 378.637 67.53 377.843 67.87C377.163 68.0967 376.54 68.21 375.973 68.21C374.953 68.21 374.273 67.7 373.933 66.68C373.593 65.66 373.423 64.5267 373.423 63.28C373.423 59.9933 374.16 57.2167 375.633 54.95C377.22 52.57 379.77 50.4733 383.283 48.66C387.023 46.62 391.897 44.8633 397.903 43.39C404.023 41.8033 410.2 41.01 416.433 41.01C430.6 41.01 441.707 45.2033 449.753 53.59C457.913 61.8633 461.993 73.65 461.993 88.95C461.993 97.6767 460.633 105.95 457.913 113.77C455.307 121.477 451.397 128.333 446.183 134.34C440.97 140.233 434.567 144.88 426.973 148.28C419.38 151.567 410.653 153.21 400.793 153.21ZM406.233 134.17C411.333 134.17 416.433 133.377 421.533 131.79C426.633 130.203 431.223 127.823 435.303 124.65C439.497 121.477 442.84 117.453 445.333 112.58C447.827 107.593 449.073 101.643 449.073 94.73C449.073 86.91 447.543 80.45 444.483 75.35C441.423 70.25 437.343 66.4533 432.243 63.96C427.143 61.4667 421.477 60.22 415.243 60.22C411.843 60.22 408.443 60.5033 405.043 61.07C401.757 61.6367 399.15 62.2033 397.223 62.77C397.11 67.9833 396.77 73.0833 396.203 78.07C395.75 82.9433 395.183 87.7033 394.503 92.35C393.823 97.2233 393.257 101.983 392.803 106.63C392.463 111.277 392.293 115.867 392.293 120.4C392.293 126.067 393.427 129.807 395.693 131.62C398.073 133.32 401.587 134.17 406.233 134.17Z"/>
</mask>
<path d="M148.67 150.83L153.732 147.609L153.732 147.609L148.67 150.83ZM149.52 122.61L143.598 121.648L143.592 121.684L143.586 121.72L149.52 122.61ZM154.79 95.58L148.954 94.1864L148.947 94.2167L148.94 94.2471L154.79 95.58ZM160.74 74.33L155.068 72.374L155.053 72.418L155.038 72.4621L160.74 74.33ZM166.69 58.18L161.164 55.8422L161.147 55.8838L161.13 55.9258L166.69 58.18ZM175.19 44.75L179.355 49.0691L179.358 49.0664L175.19 44.75ZM195.08 43.22L191.158 47.7609L191.219 47.8132L191.281 47.8637L195.08 43.22ZM199.5 54.44L193.521 54.9383L193.526 54.9979L193.532 55.0574L199.5 54.44ZM201.88 74.33L207.826 73.5238L207.826 73.5238L201.88 74.33ZM204.94 92.69L199.061 93.8898L199.064 93.9017L199.066 93.9137L204.94 92.69ZM208.51 105.27L214.097 103.084L214.068 103.007L214.036 102.932L208.51 105.27ZM218.54 105.1L213.374 102.048L213.366 102.062L213.357 102.077L218.54 105.1ZM223.3 94.9L228.881 97.103L228.881 97.103L223.3 94.9ZM228.23 81.3L222.565 79.3238L222.551 79.3631L222.538 79.4026L228.23 81.3ZM232.65 68.04L226.973 66.0979L226.949 66.1692L226.926 66.241L232.65 68.04ZM237.58 55.12L232.08 52.7225L232.065 52.757L232.05 52.7917L237.58 55.12ZM244.89 44.24L249.049 48.565L249.091 48.5242L249.133 48.4826L244.89 44.24ZM264.61 44.07L259.465 47.157L259.539 47.2794L259.618 47.3982L264.61 44.07ZM266.82 71.78L260.833 71.3809L260.828 71.4651L260.824 71.5494L266.82 71.78ZM266.31 80.96L260.325 80.5325L260.318 80.6351L260.314 80.7379L266.31 80.96ZM266.82 106.63L260.839 107.108L260.844 107.168L260.85 107.227L266.82 106.63ZM269.88 122.61L264.126 124.31L264.144 124.37L264.162 124.429L269.88 122.61ZM276.85 135.19L272.39 139.204L272.63 139.47L272.899 139.705L276.85 135.19ZM279.23 137.91L274.238 141.238L274.359 141.421L274.494 141.594L279.23 137.91ZM275.83 149.13L279.488 153.886L279.501 153.876L279.514 153.866L275.83 149.13ZM257.81 149.13L262.61 145.53L262.61 145.53L257.81 149.13ZM253.73 139.95L247.893 141.34L247.911 141.413L247.93 141.485L253.73 139.95ZM251.35 124.65L245.371 125.148L245.371 125.148L251.35 124.65ZM251.52 86.4L245.549 85.8127L245.544 85.8572L245.541 85.9017L251.52 86.4ZM252.03 67.19L246.412 69.2967L246.461 69.4263L246.515 69.5535L252.03 67.19ZM245.4 68.04L240.644 64.3817L240.622 64.4107L240.6 64.44L245.4 68.04ZM242.85 73.82L248.582 75.5941L248.612 75.4969L248.639 75.3987L242.85 73.82ZM237.92 89.12L243.612 91.0174L243.612 91.0174L237.92 89.12ZM232.14 105.1L226.553 102.914L226.532 102.967L226.512 103.02L232.14 105.1ZM225.85 119.04L220.605 116.126L220.596 116.142L220.587 116.158L225.85 119.04ZM217.35 128.73L220.195 134.013L220.229 133.994L220.264 133.975L217.35 128.73ZM197.46 126.69L192.724 130.374L192.8 130.471L192.88 130.566L197.46 126.69ZM192.19 116.66L186.447 118.396L186.455 118.423L186.463 118.45L192.19 116.66ZM188.11 97.62L182.183 98.5514L182.185 98.5646L188.11 97.62ZM185.39 70.93L179.399 71.2538L179.399 71.2641L179.4 71.2743L185.39 70.93ZM174.85 70.76L169.258 68.5853L169.205 68.7227L169.158 68.8626L174.85 70.76ZM170.94 85.21L176.788 86.5503L176.791 86.5372L176.794 86.5242L170.94 85.21ZM167.88 102.38L161.932 101.594L161.925 101.643L161.92 101.692L167.88 102.38ZM167.37 132.64L161.396 133.2L161.405 133.292L161.416 133.384L167.37 132.64ZM165.33 148.45L161.546 143.793L161.472 143.853L161.4 143.916L165.33 148.45ZM159.21 151.68L157.562 145.911L159.21 151.68ZM153.09 152.7V146.7C152.554 146.7 152.497 146.617 152.708 146.707C152.827 146.757 153.009 146.853 153.211 147.02C153.416 147.189 153.594 147.392 153.732 147.609L148.67 150.83L143.608 154.051C145.954 157.738 149.899 158.7 153.09 158.7V152.7ZM148.67 150.83L153.732 147.609C153.549 147.322 153.48 147.079 153.48 146.75H147.48H141.48C141.48 149.368 142.204 151.845 143.608 154.051L148.67 150.83ZM147.48 146.75H153.48C153.48 140.095 154.125 132.355 155.454 123.5L149.52 122.61L143.586 121.72C142.195 130.998 141.48 139.352 141.48 146.75H147.48ZM149.52 122.61L155.442 123.572C156.895 114.63 158.628 105.743 160.64 96.9129L154.79 95.58L148.94 94.2471C146.872 103.323 145.091 112.457 143.598 121.648L149.52 122.61ZM154.79 95.58L160.626 96.9736C162.406 89.5202 164.346 82.5967 166.442 76.1978L160.74 74.33L155.038 72.4621C152.828 79.21 150.801 86.4531 148.954 94.1864L154.79 95.58ZM160.74 74.33L166.412 76.2859C168.66 69.766 170.605 64.4919 172.25 60.4342L166.69 58.18L161.13 55.9258C159.375 60.2548 157.353 65.7473 155.068 72.374L160.74 74.33ZM166.69 58.18L172.216 60.5178C174.525 55.0609 176.965 51.3736 179.355 49.0691L175.19 44.75L171.025 40.4309C167.068 44.2464 163.842 49.5124 161.164 55.8422L166.69 58.18ZM175.19 44.75L179.358 49.0664C181.601 46.9006 183.93 45.99 186.58 45.99V39.99V33.99C180.617 33.99 175.353 36.2528 171.022 40.4336L175.19 44.75ZM186.58 39.99V45.99C188.254 45.99 189.709 46.5095 191.158 47.7609L195.08 43.22L199.002 38.6791C195.464 35.6238 191.252 33.99 186.58 33.99V39.99ZM195.08 43.22L191.281 47.8637C191.879 48.3534 193.114 50.0569 193.521 54.9383L199.5 54.44L205.479 53.9417C204.979 47.943 203.268 42.1666 198.879 38.5762L195.08 43.22ZM199.5 54.44L193.532 55.0574C194.219 61.6951 195.019 68.388 195.934 75.1362L201.88 74.33L207.826 73.5238C206.927 66.8986 206.141 60.3316 205.468 53.8226L199.5 54.44ZM201.88 74.33L195.934 75.1362C196.856 81.9308 197.897 88.1843 199.061 93.8898L204.94 92.69L210.819 91.4902C209.717 86.089 208.718 80.1025 207.826 73.5238L201.88 74.33ZM204.94 92.69L199.066 93.9137C200.23 99.5007 201.514 104.133 202.984 107.608L208.51 105.27L214.036 102.932C213.012 100.513 211.917 96.7593 210.814 91.4663L204.94 92.69ZM208.51 105.27L202.923 107.456C204.361 111.132 207.434 115.18 212.93 115.18V109.18V103.18C213.139 103.18 213.418 103.218 213.718 103.333C214.015 103.447 214.229 103.597 214.355 103.709C214.472 103.812 214.482 103.854 214.419 103.755C214.355 103.654 214.239 103.444 214.097 103.084L208.51 105.27ZM212.93 109.18V115.18C218.114 115.18 221.606 111.752 223.723 108.123L218.54 105.1L213.357 102.077C212.84 102.964 212.485 103.259 212.418 103.308C212.398 103.322 212.45 103.282 212.571 103.241C212.695 103.199 212.824 103.18 212.93 103.18V109.18ZM218.54 105.1L223.706 108.152C225.405 105.276 227.125 101.552 228.881 97.103L223.3 94.9L217.719 92.697C216.075 96.8616 214.621 99.9373 213.374 102.048L218.54 105.1ZM223.3 94.9L228.881 97.103C230.624 92.6875 232.304 88.0518 233.922 83.1974L228.23 81.3L222.538 79.4026C220.983 84.0682 219.376 88.4991 217.719 92.697L223.3 94.9ZM228.23 81.3L233.895 83.2762C235.611 78.3575 237.105 73.8771 238.374 69.8389L232.65 68.04L226.926 66.241C225.702 70.1362 224.249 74.4959 222.565 79.3238L228.23 81.3ZM232.65 68.04L238.327 69.9821C239.755 65.8093 241.349 61.6314 243.11 57.4483L237.58 55.12L232.05 52.7917C230.185 57.222 228.492 61.6574 226.973 66.0979L232.65 68.04ZM237.58 55.12L243.08 57.5175C244.747 53.6941 246.764 50.7614 249.049 48.565L244.89 44.24L240.731 39.915C237.122 43.3853 234.267 47.7058 232.08 52.7225L237.58 55.12ZM244.89 44.24L249.133 48.4826C250.881 46.7347 253.004 45.82 255.94 45.82V39.82V33.82C250.036 33.82 244.793 35.8519 240.647 39.9974L244.89 44.24ZM255.94 39.82V45.82C258.487 45.82 259.116 46.5744 259.465 47.157L264.61 44.07L269.755 40.983C266.705 35.8989 261.553 33.82 255.94 33.82V39.82ZM264.61 44.07L259.618 47.3982C260.422 48.6047 261.33 51.4843 261.33 57.16H267.33H273.33C273.33 50.8223 272.425 44.9753 269.602 40.7418L264.61 44.07ZM267.33 57.16H261.33C261.33 61.6611 261.165 66.4008 260.833 71.3809L266.82 71.78L272.807 72.1791C273.155 66.9592 273.33 61.9522 273.33 57.16H267.33ZM266.82 71.78L260.824 71.5494C260.714 74.4255 260.548 77.4197 260.325 80.5325L266.31 80.96L272.295 81.3875C272.526 78.1537 272.7 75.0278 272.816 72.0106L266.82 71.78ZM266.31 80.96L260.314 80.7379C260.198 83.8771 260.14 87.1246 260.14 90.48H266.14H272.14C272.14 87.262 272.195 84.1629 272.306 81.1821L266.31 80.96ZM266.14 90.48H260.14C260.14 95.7565 260.374 101.3 260.839 107.108L266.82 106.63L272.801 106.152C272.359 100.626 272.14 95.4034 272.14 90.48H266.14ZM266.82 106.63L260.85 107.227C261.45 113.232 262.537 118.931 264.126 124.31L269.88 122.61L275.634 120.91C274.277 116.316 273.323 111.361 272.79 106.033L266.82 106.63ZM269.88 122.61L264.162 124.429C265.971 130.112 268.683 135.085 272.39 139.204L276.85 135.19L281.31 131.176C278.897 128.495 276.963 125.082 275.598 120.791L269.88 122.61ZM276.85 135.19L272.899 139.705C273.401 140.145 273.846 140.65 274.238 141.238L279.23 137.91L284.222 134.582C283.254 133.13 282.113 131.822 280.801 130.675L276.85 135.19ZM279.23 137.91L274.494 141.594C274.522 141.63 274.492 141.599 274.459 141.507C274.445 141.465 274.434 141.422 274.427 141.383C274.421 141.343 274.42 141.318 274.42 141.31H280.42H286.42C286.42 138.678 285.546 136.258 283.966 134.226L279.23 137.91ZM280.42 141.31H274.42C274.42 141.669 274.319 142.704 272.146 144.394L275.83 149.13L279.514 153.866C283.461 150.796 286.42 146.618 286.42 141.31H280.42ZM275.83 149.13L272.172 144.374C270.314 145.803 268.212 146.53 265.63 146.53V152.53V158.53C270.755 158.53 275.452 156.99 279.488 153.886L275.83 149.13ZM265.63 152.53V146.53C263.501 146.53 262.905 145.924 262.61 145.53L257.81 149.13L253.01 152.73C256.115 156.87 260.732 158.53 265.63 158.53V152.53ZM257.81 149.13L262.61 145.53C261.52 144.077 260.427 141.803 259.53 138.415L253.73 139.95L247.93 141.485C249.073 145.804 250.7 149.649 253.01 152.73L257.81 149.13ZM253.73 139.95L259.567 138.56C258.511 134.125 257.76 129.325 257.329 124.152L251.35 124.65L245.371 125.148C245.846 130.855 246.683 136.255 247.893 141.34L253.73 139.95ZM251.35 124.65L257.329 124.152C256.889 118.866 256.67 113.763 256.67 108.84H250.67H244.67C244.67 114.117 244.905 119.554 245.371 125.148L251.35 124.65ZM250.67 108.84H256.67C256.67 100.815 256.949 93.5043 257.499 86.8983L251.52 86.4L245.541 85.9017C244.958 92.8957 244.67 100.545 244.67 108.84H250.67ZM251.52 86.4L257.491 86.9873C258.174 80.0437 258.54 74.6982 258.54 71.1H252.54H246.54C246.54 74.0751 246.226 78.9297 245.549 85.8127L251.52 86.4ZM252.54 71.1H258.54C258.54 69.1729 258.397 66.8155 257.545 64.8265L252.03 67.19L246.515 69.5535C246.441 69.3815 246.419 69.2838 246.423 69.2987C246.426 69.3094 246.443 69.384 246.463 69.5385C246.504 69.8571 246.54 70.3631 246.54 71.1H252.54ZM252.03 67.19L257.648 65.0832C256.968 63.2707 255.682 61.7935 253.961 60.8759C252.383 60.0344 250.763 59.83 249.48 59.83V65.83V71.83C249.557 71.83 249.042 71.8523 248.314 71.4641C247.443 70.9998 246.752 70.2027 246.412 69.2967L252.03 67.19ZM249.48 65.83V59.83C245.698 59.83 242.694 61.7174 240.644 64.3817L245.4 68.04L250.156 71.6983C250.312 71.4958 250.32 71.5539 250.128 71.6582C250.033 71.7095 249.917 71.7567 249.788 71.789C249.659 71.8211 249.552 71.83 249.48 71.83V65.83ZM245.4 68.04L240.6 64.44C238.953 66.6355 237.847 69.3592 237.061 72.2413L242.85 73.82L248.639 75.3987C249.213 73.2941 249.807 72.1645 250.2 71.64L245.4 68.04ZM242.85 73.82L237.118 72.0459C235.659 76.7591 234.03 81.8176 232.228 87.2226L237.92 89.12L243.612 91.0174C245.437 85.5424 247.094 80.4009 248.582 75.5941L242.85 73.82ZM237.92 89.12L232.228 87.2226C230.446 92.5678 228.554 97.798 226.553 102.914L232.14 105.1L237.727 107.286C239.806 101.975 241.767 96.5522 243.612 91.0174L237.92 89.12ZM232.14 105.1L226.512 103.02C224.672 107.999 222.698 112.359 220.605 116.126L225.85 119.04L231.095 121.954C233.535 117.561 235.754 112.628 237.768 107.18L232.14 105.1ZM225.85 119.04L220.587 116.158C218.249 120.428 216.102 122.56 214.436 123.485L217.35 128.73L220.264 133.975C224.718 131.5 228.238 127.172 231.113 121.922L225.85 119.04ZM217.35 128.73L214.505 123.447C212.349 124.608 210.316 125.11 208.34 125.11V131.11V137.11C212.484 137.11 216.457 136.025 220.195 134.013L217.35 128.73ZM208.34 131.11V125.11C204.896 125.11 203.132 124.105 202.04 122.814L197.46 126.69L192.88 130.566C196.774 135.168 202.264 137.11 208.34 137.11V131.11ZM197.46 126.69L202.196 123.006C200.248 120.502 198.832 117.797 197.917 114.87L192.19 116.66L186.463 118.45C187.815 122.776 189.912 126.758 192.724 130.374L197.46 126.69ZM192.19 116.66L197.933 114.924C196.569 110.411 195.26 104.357 194.035 96.6754L188.11 97.62L182.185 98.5646C183.454 106.523 184.864 113.163 186.447 118.396L192.19 116.66ZM188.11 97.62L194.037 96.6886C192.827 88.9879 191.938 80.2918 191.38 70.5857L185.39 70.93L179.4 71.2743C179.975 81.2882 180.9 90.3854 182.183 98.5514L188.11 97.62ZM185.39 70.93L191.381 70.6061C191.245 68.0916 190.75 65.2854 189.234 62.9474C187.451 60.1983 184.595 58.64 181.31 58.64V64.64V70.64C181.07 70.64 180.612 70.5824 180.1 70.3035C179.588 70.0249 179.293 69.6736 179.166 69.4776C179.059 69.3131 179.107 69.3178 179.19 69.6457C179.271 69.9665 179.357 70.4852 179.399 71.2538L185.39 70.93ZM181.31 64.64V58.64C174.764 58.64 171.123 63.7896 169.258 68.5853L174.85 70.76L180.442 72.9347C181.054 71.3601 181.58 70.7163 181.781 70.5257C181.857 70.454 181.831 70.4996 181.693 70.5571C181.546 70.6185 181.401 70.64 181.31 70.64V64.64ZM174.85 70.76L169.158 68.8626C167.717 73.1839 166.363 78.2042 165.086 83.8958L170.94 85.21L176.794 86.5242C178.01 81.1091 179.263 76.4961 180.542 72.6574L174.85 70.76ZM170.94 85.21L165.092 83.8697C163.8 89.5077 162.748 95.417 161.932 101.594L167.88 102.38L173.828 103.166C174.599 97.3297 175.587 91.7923 176.788 86.5503L170.94 85.21ZM167.88 102.38L161.92 101.692C161.214 107.808 160.86 113.874 160.86 119.89H166.86H172.86C172.86 114.346 173.186 108.739 173.84 103.068L167.88 102.38ZM166.86 119.89H160.86C160.86 124.892 161.034 129.337 161.396 133.2L167.37 132.64L173.344 132.08C173.026 128.689 172.86 124.634 172.86 119.89H166.86ZM167.37 132.64L161.416 133.384C161.843 136.8 162.05 139.949 162.05 142.84H168.05H174.05C174.05 139.384 173.803 135.733 173.324 131.896L167.37 132.64ZM168.05 142.84H162.05C162.05 143.15 161.994 143.278 161.971 143.325C161.946 143.377 161.857 143.541 161.546 143.793L165.33 148.45L169.114 153.107C172.279 150.535 174.05 146.977 174.05 142.84H168.05ZM165.33 148.45L161.4 143.916C160.426 144.761 159.186 145.447 157.562 145.911L159.21 151.68L160.858 157.449C163.994 156.553 166.834 155.086 169.26 152.984L165.33 148.45ZM159.21 151.68L157.562 145.911C155.497 146.501 154.042 146.7 153.09 146.7V152.7V158.7C155.538 158.7 158.163 158.219 160.858 157.449L159.21 151.68ZM300.948 148.11L297.544 153.051L297.606 153.094L297.67 153.136L300.948 148.11ZM293.638 121.59L287.684 120.846L287.668 120.968L287.658 121.092L293.638 121.59ZM294.998 111.73L289.076 110.763L289.068 110.81L289.061 110.857L294.998 111.73ZM297.038 96.94L303.005 97.5681L303.005 97.5601L303.006 97.5522L297.038 96.94ZM297.378 72.63L291.381 72.8441L291.385 72.9509L291.393 73.0575L297.378 72.63ZM296.528 63.62L302.452 62.6721L301.467 56.5133L295.351 57.7365L296.528 63.62ZM291.258 63.62L286.457 67.22L286.713 67.5611L287.015 67.8627L291.258 63.62ZM291.598 54.27L297.418 55.7252L297.427 55.6925L297.434 55.6597L291.598 54.27ZM293.978 48.49L289.081 45.0219L289.063 45.0482L289.044 45.0747L293.978 48.49ZM302.818 43.73L302.155 37.7667L302.146 37.7677L302.136 37.7688L302.818 43.73ZM314.038 42.71L313.589 36.7268L313.577 36.7277L314.038 42.71ZM327.808 42.03L327.954 48.0282L328.023 48.0265L328.093 48.0232L327.808 42.03ZM359.088 42.37L357.713 48.2105L357.942 48.2644L358.175 48.3002L359.088 42.37ZM359.938 56.48L355.343 52.6208L355.216 52.7723L355.099 52.9318L359.938 56.48ZM356.198 60.22L359.071 65.4874L359.248 65.3905L359.419 65.282L356.198 60.22ZM350.928 61.07L350.519 67.0561L350.574 67.0598L350.628 67.0625L350.928 61.07ZM337.838 60.39L338.019 54.3927L338.019 54.3927L337.838 60.39ZM321.858 60.39L321.618 54.3948L321.608 54.3952L321.858 60.39ZM313.528 60.9L313.049 54.9191L307.528 55.3608V60.9H313.528ZM313.018 73.65L319.001 74.0987L319.001 74.0987L313.018 73.65ZM311.658 87.93L305.696 87.2525L304.885 94.3844L312.048 93.9173L311.658 87.93ZM329.338 87.25L329.441 93.2491L329.493 93.2482L329.544 93.2464L329.338 87.25ZM351.438 87.59L348.461 92.7995L348.605 92.8821L348.754 92.9566L351.438 87.59ZM351.268 97.28L345.796 94.8178L345.766 94.8844L345.738 94.9517L351.268 97.28ZM347.528 102.89L343.285 98.6474L343.285 98.6474L347.528 102.89ZM345.318 104.59L347.681 110.105L347.996 109.97L348.294 109.799L345.318 104.59ZM342.088 104.93L342.586 98.9507L342.476 98.9416L342.366 98.9365L342.088 104.93ZM325.428 104.42L325.316 110.419L325.318 110.419L325.428 104.42ZM309.278 104.42L309.131 98.4218L304.21 98.5418L303.366 103.392L309.278 104.42ZM308.258 111.56L314.225 112.188L314.225 112.188L308.258 111.56ZM341.068 132.98L339.952 127.085L339.937 127.087L339.922 127.09L341.068 132.98ZM353.818 128.56L356.501 133.927L356.65 133.852L356.794 133.769L353.818 128.56ZM360.958 129.92L355.87 133.1L355.987 133.289L356.119 133.468L360.958 129.92ZM359.938 142.67L355.366 138.784L355.357 138.795L355.348 138.805L359.938 142.67ZM352.628 148.28L355.097 153.748L355.245 153.681L355.389 153.607L352.628 148.28ZM340.048 151.85L339.083 145.928L339.017 145.939L338.95 145.951L340.048 151.85ZM324.918 153.21V147.21C314.565 147.21 307.984 145.536 304.225 143.084L300.948 148.11L297.67 153.136C304.338 157.484 313.736 159.21 324.918 159.21V153.21ZM300.948 148.11L304.351 143.169C301.613 141.282 299.298 137.211 299.298 128.56H293.298H287.298C287.298 138.949 290.082 147.911 297.544 153.051L300.948 148.11ZM293.298 128.56H299.298C299.298 126.852 299.399 124.705 299.617 122.088L293.638 121.59L287.658 121.092C287.423 123.915 287.298 126.415 287.298 128.56H293.298ZM293.638 121.59L299.591 122.334C299.924 119.671 300.371 116.43 300.934 112.603L294.998 111.73L289.061 110.857C288.491 114.737 288.031 118.069 287.684 120.846L293.638 121.59ZM294.998 111.73L300.919 112.697C301.839 107.062 302.536 102.016 303.005 97.5681L297.038 96.94L291.07 96.3119C290.632 100.478 289.969 105.291 289.076 110.763L294.998 111.73ZM297.038 96.94L303.006 97.5522C303.484 92.8976 303.718 87.8738 303.718 82.49H297.718H291.718C291.718 87.5329 291.498 92.1424 291.069 96.3278L297.038 96.94ZM297.718 82.49H303.718C303.718 78.957 303.6 75.5274 303.362 72.2025L297.378 72.63L291.393 73.0575C291.609 76.0792 291.718 79.223 291.718 82.49H297.718ZM297.378 72.63L303.374 72.4158C303.252 69.0223 302.948 65.7723 302.452 62.6721L296.528 63.62L290.603 64.5679C291.013 67.1343 291.276 69.8911 291.381 72.8441L297.378 72.63ZM296.528 63.62L295.351 57.7365C294.553 57.896 293.948 58.0035 293.512 58.0689C293.296 58.1013 293.15 58.1191 293.062 58.1279C292.959 58.1382 292.997 58.13 293.128 58.13V64.13V70.13C294.39 70.13 296.113 69.8218 297.704 69.5035L296.528 63.62ZM293.128 64.13V58.13C293.011 58.13 293.196 58.1149 293.559 58.2139C293.921 58.3127 294.721 58.5979 295.5 59.3773L291.258 63.62L287.015 67.8627C289.134 69.982 291.888 70.13 293.128 70.13V64.13ZM291.258 63.62L296.058 60.02C296.33 60.3837 296.493 60.7133 296.588 60.9445C296.682 61.1754 296.725 61.3471 296.742 61.4278C296.772 61.5709 296.748 61.5369 296.748 61.24H290.748H284.748C284.748 62.5856 284.873 65.1069 286.457 67.22L291.258 63.62ZM290.748 61.24H296.748C296.748 59.3414 296.973 57.5071 297.418 55.7252L291.598 54.27L285.777 52.8148C285.089 55.5662 284.748 58.3786 284.748 61.24H290.748ZM291.598 54.27L297.434 55.6597C297.887 53.7575 298.439 52.5861 298.911 51.9053L293.978 48.49L289.044 45.0747C287.476 47.3405 286.441 50.0225 285.761 52.8803L291.598 54.27ZM293.978 48.49L298.874 51.9581C299.619 50.9052 300.862 49.9925 303.499 49.6912L302.818 43.73L302.136 37.7688C296.84 38.3741 292.189 40.6348 289.081 45.0219L293.978 48.49ZM302.818 43.73L303.48 49.6933C306.451 49.3632 310.119 49.0292 314.498 48.6923L314.038 42.71L313.577 36.7277C309.116 37.0708 305.304 37.4168 302.155 37.7667L302.818 43.73ZM314.038 42.71L314.486 48.6932C318.917 48.3609 323.406 48.1391 327.954 48.0282L327.808 42.03L327.661 36.0318C322.916 36.1475 318.225 36.3791 313.589 36.7268L314.038 42.71ZM327.808 42.03L328.093 48.0232C332.782 47.7999 336.934 47.69 340.558 47.69V41.69V35.69C336.701 35.69 332.353 35.8068 327.522 36.0368L327.808 42.03ZM340.558 41.69V47.69C345.74 47.69 349.808 47.7465 352.79 47.856C354.283 47.9107 355.459 47.9773 356.344 48.0515C356.785 48.0885 357.125 48.1251 357.377 48.1585C357.644 48.1939 357.737 48.2162 357.713 48.2105L359.088 42.37L360.462 36.5295C358.828 36.1451 356.201 35.9731 353.23 35.864C350.036 35.7468 345.802 35.69 340.558 35.69V41.69ZM359.088 42.37L358.175 48.3002C358.81 48.3979 358.482 48.4952 358.006 47.9827C357.773 47.7321 357.628 47.4601 357.554 47.2446C357.487 47.0494 357.508 46.9855 357.508 47.13H363.508H369.508C369.508 44.6602 368.812 41.9851 366.799 39.8173C364.85 37.7182 362.312 36.7955 360 36.4398L359.088 42.37ZM363.508 47.13H357.508C357.508 48.9899 356.901 50.7659 355.343 52.6208L359.938 56.48L364.532 60.3391C367.734 56.5274 369.508 52.0701 369.508 47.13H363.508ZM359.938 56.48L355.099 52.9318C354.12 54.2669 353.388 54.8961 352.976 55.158L356.198 60.22L359.419 65.282C361.5 63.9572 363.262 62.0931 364.776 60.0282L359.938 56.48ZM356.198 60.22L353.324 54.9526C353.428 54.8962 353.359 54.9595 352.99 55.019C352.621 55.0785 352.049 55.1186 351.227 55.0775L350.928 61.07L350.628 67.0625C353.4 67.2011 356.435 66.9248 359.071 65.4874L356.198 60.22ZM350.928 61.07L351.336 55.0839C346.297 54.7403 341.855 54.509 338.019 54.3927L337.838 60.39L337.656 66.3872C341.3 66.4977 345.585 66.7197 350.519 67.0561L350.928 61.07ZM337.838 60.39L338.019 54.3927C334.283 54.2795 331.593 54.22 330.018 54.22V60.22V66.22C331.389 66.22 333.912 66.2738 337.656 66.3872L337.838 60.39ZM330.018 60.22V54.22C327.324 54.22 324.524 54.2785 321.618 54.3948L321.858 60.39L322.097 66.3852C324.858 66.2748 327.497 66.22 330.018 66.22V60.22ZM321.858 60.39L321.608 54.3952C318.808 54.5118 315.955 54.6866 313.049 54.9191L313.528 60.9L314.006 66.8809C316.766 66.66 319.467 66.4948 322.107 66.3848L321.858 60.39ZM313.528 60.9H307.528C307.528 64.6972 307.365 68.7962 307.034 73.2013L313.018 73.65L319.001 74.0987C319.35 69.4371 319.528 65.0361 319.528 60.9H313.528ZM313.018 73.65L307.034 73.2013C306.701 77.6509 306.255 82.3343 305.696 87.2525L311.658 87.93L317.619 88.6075C318.194 83.5524 318.654 78.7158 319.001 74.0987L313.018 73.65ZM311.658 87.93L312.048 93.9173C317.145 93.5849 322.94 93.3612 329.441 93.2491L329.338 87.25L329.234 81.2509C322.588 81.3655 316.597 81.5951 311.267 81.9427L311.658 87.93ZM329.338 87.25L329.544 93.2464C336.067 93.0215 341.833 92.91 346.848 92.91V86.91V80.91C341.662 80.91 335.754 81.0252 329.131 81.2536L329.338 87.25ZM346.848 86.91V92.91C347.809 92.91 348.442 92.9598 348.816 93.0152C348.997 93.042 349.054 93.0611 349.019 93.0509C348.995 93.0439 348.777 92.9801 348.461 92.7995L351.438 87.59L354.414 82.3805C353.072 81.6134 351.638 81.3024 350.574 81.1448C349.418 80.9735 348.153 80.91 346.848 80.91V86.91ZM351.438 87.59L348.754 92.9566C347.542 92.3506 347.016 91.3938 346.851 90.9585C346.72 90.6151 346.798 90.5901 346.798 91.16H352.798H358.798C358.798 89.0058 358.402 84.3638 354.121 82.2234L351.438 87.59ZM352.798 91.16H346.798C346.798 91.8714 346.589 93.0554 345.796 94.8178L351.268 97.28L356.739 99.7422C357.986 96.9713 358.798 94.0752 358.798 91.16H352.798ZM351.268 97.28L345.738 94.9517C345.12 96.4197 344.3 97.6321 343.285 98.6474L347.528 102.89L351.77 107.133C353.928 104.975 355.602 102.447 356.797 99.6083L351.268 97.28ZM347.528 102.89L343.285 98.6474C342.962 98.9701 342.647 99.2053 342.341 99.3805L345.318 104.59L348.294 109.799C349.574 109.068 350.733 108.17 351.77 107.133L347.528 102.89ZM345.318 104.59L342.954 99.0751C343.23 98.9571 343.372 98.954 343.287 98.963C343.205 98.9716 342.983 98.9838 342.586 98.9507L342.088 104.93L341.589 110.909C343.415 111.061 345.61 110.993 347.681 110.105L345.318 104.59ZM342.088 104.93L342.366 98.9365C337.423 98.7066 331.812 98.5351 325.537 98.421L325.428 104.42L325.318 110.419C331.51 110.532 337.005 110.7 341.809 110.924L342.088 104.93ZM325.428 104.42L325.539 98.421C319.358 98.3066 313.886 98.3058 309.131 98.4218L309.278 104.42L309.424 110.418C313.963 110.308 319.257 110.307 325.316 110.419L325.428 104.42ZM309.278 104.42L303.366 103.392C302.895 106.103 302.534 108.619 302.29 110.932L308.258 111.56L314.225 112.188C314.434 110.194 314.754 107.95 315.189 105.448L309.278 104.42ZM308.258 111.56L302.29 110.932C302.047 113.241 301.918 115.383 301.918 117.34H307.918H313.918C313.918 115.897 314.014 114.186 314.225 112.188L308.258 111.56ZM307.918 117.34H301.918C301.918 124.396 303.703 131.009 308.971 135.148L312.678 130.43L316.384 125.712C315.305 124.864 313.918 122.751 313.918 117.34H307.918ZM312.678 130.43L308.971 135.148C313.761 138.912 320.668 140.17 328.317 140.17V134.17V128.17C321.46 128.17 317.94 126.935 316.384 125.712L312.678 130.43ZM328.317 134.17V140.17C333.098 140.17 337.732 139.741 342.213 138.87L341.068 132.98L339.922 127.09C336.243 127.806 332.377 128.17 328.317 128.17V134.17ZM341.068 132.98L342.183 138.875C346.985 137.967 351.761 136.297 356.501 133.927L353.818 128.56L351.134 123.193C347.261 125.13 343.536 126.406 339.952 127.085L341.068 132.98ZM353.818 128.56L356.794 133.769C357.423 133.41 357.826 133.227 358.036 133.147C358.135 133.109 358.136 133.116 358.055 133.134C357.981 133.151 357.744 133.2 357.388 133.2V127.2V121.2C355.954 121.2 354.679 121.585 353.764 121.933C352.784 122.306 351.798 122.803 350.841 123.351L353.818 128.56ZM357.388 127.2V133.2C356.955 133.2 356.555 133.118 356.219 132.993C355.894 132.872 355.682 132.731 355.579 132.653C355.408 132.522 355.535 132.565 355.87 133.1L360.958 129.92L366.045 126.74C364.608 124.44 361.851 121.2 357.388 121.2V127.2ZM360.958 129.92L356.119 133.468C356.638 134.176 356.828 134.811 356.828 135.53H362.828H368.828C368.828 132.169 367.77 129.064 365.796 126.372L360.958 129.92ZM362.828 135.53H356.828C356.828 136.336 356.557 137.383 355.366 138.784L359.938 142.67L364.509 146.556C367.171 143.424 368.828 139.711 368.828 135.53H362.828ZM359.938 142.67L355.348 138.805C354.142 140.237 352.379 141.65 349.866 142.953L352.628 148.28L355.389 153.607C358.996 151.736 362.106 149.409 364.527 146.535L359.938 142.67ZM352.628 148.28L350.158 142.812C347.237 144.131 343.575 145.197 339.083 145.928L340.048 151.85L341.012 157.772C346.267 156.917 350.992 155.602 355.097 153.748L352.628 148.28ZM340.048 151.85L338.95 145.951C334.457 146.787 329.782 147.21 324.918 147.21V153.21V159.21C330.48 159.21 335.892 158.726 341.145 157.749L340.048 151.85ZM389.233 152.02L390.555 146.167L389.233 152.02ZM380.563 147.6L384.696 143.25L384.677 143.232L384.657 143.214L380.563 147.6ZM377.163 142.33L371.382 143.936L371.394 143.98L371.407 144.023L377.163 142.33ZM377.333 124.14L383.242 125.183L383.254 125.114L383.265 125.045L377.333 124.14ZM380.053 102.55L374.085 101.936L374.085 101.936L380.053 102.55ZM380.903 74.16L374.909 74.4206L374.915 74.5504L374.926 74.6798L380.903 74.16ZM380.223 66.85L386.157 65.96L385.004 58.2733L377.86 61.3351L380.223 66.85ZM377.843 67.87L379.741 73.5621L379.977 73.4832L380.207 73.3849L377.843 67.87ZM373.933 66.68L379.625 64.7826L379.625 64.7826L373.933 66.68ZM375.633 54.95L370.641 51.6218L370.622 51.6508L370.603 51.6801L375.633 54.95ZM383.283 48.66L386.035 53.9917L386.096 53.9602L386.156 53.9274L383.283 48.66ZM397.903 43.39L399.333 49.2173L399.371 49.2079L399.409 49.198L397.903 43.39ZM449.753 53.59L445.424 57.744L445.452 57.7738L445.481 57.8033L449.753 53.59ZM457.913 113.77L452.246 111.799L452.238 111.823L452.23 111.848L457.913 113.77ZM446.183 134.34L450.677 138.315L450.696 138.294L450.715 138.273L446.183 134.34ZM426.973 148.28L429.357 153.786L429.391 153.771L429.425 153.756L426.973 148.28ZM421.533 131.79L419.751 126.061L419.751 126.061L421.533 131.79ZM435.303 124.65L431.683 119.866L431.651 119.89L431.62 119.914L435.303 124.65ZM445.333 112.58L450.675 115.313L450.687 115.288L450.7 115.263L445.333 112.58ZM444.483 75.35L449.628 72.263L449.628 72.263L444.483 75.35ZM432.243 63.96L434.879 58.5697L434.879 58.5697L432.243 63.96ZM405.043 61.07L404.057 55.1516L404.04 55.1544L404.024 55.1572L405.043 61.07ZM397.223 62.77L395.53 57.0138L391.32 58.2521L391.225 62.6396L397.223 62.77ZM396.203 78.07L390.242 77.3925L390.235 77.4533L390.229 77.5143L396.203 78.07ZM394.503 92.35L388.567 91.4812L388.564 91.501L388.561 91.5208L394.503 92.35ZM392.803 106.63L386.832 106.047L386.825 106.12L386.819 106.192L392.803 106.63ZM395.693 131.62L391.945 136.305L392.073 136.407L392.206 136.502L395.693 131.62ZM400.793 153.21V147.21C396.974 147.21 393.571 146.848 390.555 146.167L389.233 152.02L387.912 157.873C391.923 158.778 396.226 159.21 400.793 159.21V153.21ZM389.233 152.02L390.555 146.167C387.934 145.575 386.065 144.551 384.696 143.25L380.563 147.6L376.431 151.95C379.595 154.956 383.506 156.878 387.912 157.873L389.233 152.02ZM380.563 147.6L384.657 143.214C383.617 142.242 383.138 141.38 382.919 140.637L377.163 142.33L371.407 144.023C372.322 147.133 374.11 149.784 376.469 151.986L380.563 147.6ZM377.163 142.33L382.944 140.724C382.54 139.267 382.313 137.603 382.313 135.7H376.313H370.313C370.313 138.557 370.654 141.313 371.382 143.936L377.163 142.33ZM376.313 135.7H382.313C382.313 132.202 382.622 128.697 383.242 125.183L377.333 124.14L371.425 123.097C370.685 127.29 370.313 131.492 370.313 135.7H376.313ZM377.333 124.14L383.265 125.045C384.301 118.249 385.22 110.955 386.022 103.164L380.053 102.55L374.085 101.936C373.3 109.559 372.405 116.658 371.402 123.235L377.333 124.14ZM380.053 102.55L386.022 103.164C386.832 95.2885 387.243 87.9409 387.243 81.13H381.243H375.243C375.243 87.4658 374.861 94.3981 374.085 101.936L380.053 102.55ZM381.243 81.13H387.243C387.243 78.8761 387.118 76.3742 386.881 73.6402L380.903 74.16L374.926 74.6798C375.141 77.1591 375.243 79.3039 375.243 81.13H381.243ZM380.903 74.16L386.898 73.8994C386.776 71.1102 386.532 68.4614 386.157 65.96L380.223 66.85L374.29 67.74C374.594 69.7719 374.804 71.9965 374.909 74.4206L380.903 74.16ZM380.223 66.85L377.86 61.3351C377.066 61.6751 376.273 62.0151 375.48 62.3551L377.843 67.87L380.207 73.3849C381 73.0449 381.793 72.7049 382.587 72.3649L380.223 66.85ZM377.843 67.87L375.946 62.1779C375.894 62.1951 375.856 62.2062 375.829 62.213C375.803 62.2199 375.791 62.222 375.792 62.2218C375.794 62.2215 375.857 62.21 375.973 62.21V68.21V74.21C377.33 74.21 378.603 73.9412 379.741 73.5621L377.843 67.87ZM375.973 68.21V62.21C376.494 62.21 377.405 62.3573 378.298 63.0275C379.165 63.6776 379.512 64.4421 379.625 64.7826L373.933 66.68L368.241 68.5774C368.695 69.9379 369.551 71.4674 371.098 72.6275C372.672 73.8077 374.432 74.21 375.973 74.21V68.21ZM373.933 66.68L379.625 64.7826C379.519 64.4632 379.423 63.9825 379.423 63.28H373.423H367.423C367.423 65.0708 367.668 66.8568 368.241 68.5774L373.933 66.68ZM373.423 63.28H379.423C379.423 60.9017 379.948 59.3213 380.664 58.2199L375.633 54.95L370.603 51.6801C368.372 55.112 367.423 59.085 367.423 63.28H373.423ZM375.633 54.95L380.626 58.2782C381.473 57.0076 383.098 55.5079 386.035 53.9917L383.283 48.66L380.531 43.3283C376.442 45.4388 372.967 48.1324 370.641 51.6218L375.633 54.95ZM383.283 48.66L386.156 53.9274C389.287 52.2197 393.624 50.6174 399.333 49.2173L397.903 43.39L396.474 37.5627C390.169 39.1092 384.759 41.0203 380.41 43.3926L383.283 48.66ZM397.903 43.39L399.409 49.198C405.044 47.737 410.715 47.01 416.433 47.01V41.01V35.01C409.685 35.01 403.002 35.8697 396.398 37.582L397.903 43.39ZM416.433 41.01V47.01C429.349 47.01 438.749 50.7873 445.424 57.744L449.753 53.59L454.083 49.436C444.664 39.6193 431.851 35.01 416.433 35.01V41.01ZM449.753 53.59L445.481 57.8033C452.217 64.6328 455.993 74.7099 455.993 88.95H461.993H467.993C467.993 72.5901 463.609 59.0939 454.025 49.3767L449.753 53.59ZM461.993 88.95H455.993C455.993 97.0421 454.734 104.646 452.246 111.799L457.913 113.77L463.58 115.741C466.532 107.254 467.993 98.3112 467.993 88.95H461.993ZM457.913 113.77L452.23 111.848C449.867 118.833 446.342 125.003 441.652 130.407L446.183 134.34L450.715 138.273C456.451 131.664 460.746 124.12 463.597 115.692L457.913 113.77ZM446.183 134.34L441.689 130.365C437.074 135.582 431.381 139.733 424.521 142.804L426.973 148.28L429.425 153.756C437.753 150.027 444.866 144.885 450.677 138.315L446.183 134.34ZM426.973 148.28L424.59 142.774C417.879 145.678 409.988 147.21 400.793 147.21V153.21V159.21C411.319 159.21 420.881 157.455 429.357 153.786L426.973 148.28ZM406.233 134.17V140.17C411.966 140.17 417.666 139.277 423.316 137.519L421.533 131.79L419.751 126.061C415.201 127.477 410.701 128.17 406.233 128.17V134.17ZM421.533 131.79L423.316 137.519C429.081 135.726 434.319 133.017 438.987 129.386L435.303 124.65L431.62 119.914C428.128 122.63 424.186 124.681 419.751 126.061L421.533 131.79ZM435.303 124.65L438.924 129.434C443.868 125.693 447.787 120.957 450.675 115.313L445.333 112.58L439.992 109.847C437.893 113.95 435.125 117.26 431.683 119.866L435.303 124.65ZM445.333 112.58L450.7 115.263C453.698 109.268 455.073 102.356 455.073 94.73H449.073H443.073C443.073 100.931 441.956 105.919 439.967 109.897L445.333 112.58ZM449.073 94.73H455.073C455.073 86.1563 453.398 78.5453 449.628 72.263L444.483 75.35L439.338 78.437C441.689 82.3547 443.073 87.6637 443.073 94.73H449.073ZM444.483 75.35L449.628 72.263C446.002 66.2188 441.071 61.5972 434.879 58.5697L432.243 63.96L429.608 69.3503C433.615 71.3095 436.845 74.2812 439.338 78.437L444.483 75.35ZM432.243 63.96L434.879 58.5697C428.88 55.6371 422.299 54.22 415.243 54.22V60.22V66.22C420.654 66.22 425.406 67.2962 429.608 69.3503L432.243 63.96ZM415.243 60.22V54.22C411.508 54.22 407.778 54.5314 404.057 55.1516L405.043 61.07L406.03 66.9884C409.108 66.4753 412.178 66.22 415.243 66.22V60.22ZM405.043 61.07L404.024 55.1572C400.637 55.7412 397.775 56.3537 395.53 57.0138L397.223 62.77L398.916 68.5262C400.525 68.053 402.876 67.5322 406.063 66.9828L405.043 61.07ZM397.223 62.77L391.225 62.6396C391.115 67.6772 390.787 72.5945 390.242 77.3925L396.203 78.07L402.165 78.7475C402.753 73.5722 403.105 68.2895 403.222 62.9004L397.223 62.77ZM396.203 78.07L390.229 77.5143C389.785 82.2873 389.231 86.9428 388.567 91.4812L394.503 92.35L400.44 93.2188C401.136 88.4639 401.715 83.5994 402.177 78.6257L396.203 78.07ZM394.503 92.35L388.561 91.5208C387.87 96.4718 387.293 101.314 386.832 106.047L392.803 106.63L398.775 107.213C399.22 102.653 399.777 97.9749 400.446 93.1792L394.503 92.35ZM392.803 106.63L386.819 106.192C386.469 110.981 386.293 115.717 386.293 120.4H392.293H398.293C398.293 116.017 398.458 111.573 398.787 107.068L392.803 106.63ZM392.293 120.4H386.293C386.293 126.312 387.364 132.64 391.945 136.305L395.693 131.62L399.441 126.935C399.532 127.008 399.22 126.818 398.885 125.715C398.548 124.6 398.293 122.884 398.293 120.4H392.293ZM395.693 131.62L392.206 136.502C396.044 139.244 401.016 140.17 406.233 140.17V134.17V128.17C402.157 128.17 400.103 127.396 399.181 126.738L395.693 131.62Z" fill="#242424" mask="url(#path-12-outside-1_2007_113)"/>
</g>
<defs>
<clipPath id="clip0_2007_113">
<rect width="533.333" height="180" fill="white"/>
</clipPath>
</defs>
</svg>
