<svg width="683" height="683" viewBox="0 0 683 683" fill="none" xmlns="http://www.w3.org/2000/svg">
<path d="M324.4 1.86663C299.333 9.99996 282.933 37.2 287.733 62.8C288.933 69.4666 288.933 71.4666 287.6 72.2666C286.8 72.8 251.866 92.9333 210 117.067L134 161.067L128.4 156.533C115.333 145.867 98.9331 141.2 83.8665 143.867C40.1332 151.467 22.9332 203.067 53.1998 235.067C59.5998 241.867 69.7331 248 77.7331 250L81.3331 250.933V341.333V431.6L75.7331 433.2C67.0665 435.733 59.9998 440.4 52.7998 447.867C22.9332 479.867 40.7998 531.867 84.2665 538.8C99.5998 541.333 117.333 536.133 128.533 525.867L133.466 521.333L211.066 566.133C253.733 590.8 288.8 611.067 288.933 611.2C289.066 611.333 288.533 615.2 287.733 619.867C283.333 643.067 296.133 667.333 318.4 678.267C325.333 681.733 327.2 682 341.333 682C355.466 682 357.333 681.733 364.266 678.267C386.533 667.333 399.333 643.067 394.933 619.867C394.133 615.2 393.6 611.333 393.733 611.2C393.866 611.067 428.933 590.8 471.6 566.133L549.2 521.333L554.133 525.867C565.333 536.133 583.066 541.333 598.4 538.8C610.533 536.8 620.266 531.867 628.8 523.467C649.466 502.667 650 469.467 629.866 447.867C622.666 440.4 615.6 435.733 607.066 433.2L601.333 431.6V341.333V250.933L604.933 250C612.933 248 623.066 241.867 629.466 235.067C659.733 203.067 642.533 151.467 598.8 143.867C583.733 141.2 567.333 145.867 554.266 156.533L548.666 161.067L472.666 117.067C430.933 92.9333 395.866 72.8 395.066 72.2666C393.733 71.4666 393.733 69.4666 394.933 62.8C399.333 39.6 386 14.4 364 4.1333C358 1.3333 354.4 0.666631 343.333 0.399964C334.666 0.133298 328 0.666631 324.4 1.86663ZM355.333 24.1333C363.2 27.8666 370.133 36 372.933 44.9333C377.2 58.6666 371.2 73.8666 358 82C352.266 85.6 350.4 86 341.333 86C332.266 86 330.4 85.6 324.666 82C316.266 76.8 311.066 69.3333 309.066 59.7333C307.733 53.2 307.866 51.0666 309.733 44.9333C312.533 36.2666 319.333 27.8666 326.933 24.2666C334.8 20.4 347.333 20.4 355.333 24.1333ZM305.866 95.2C311.866 100.267 324.533 106.667 328.4 106.667C330.4 106.667 330.666 108.533 330.666 128C330.666 148.933 330.8 149.467 334 152.667C336 154.8 338.8 156 341.333 156C343.866 156 346.666 154.8 348.666 152.667C351.866 149.467 352 148.933 352 128C352 108.533 352.266 106.667 354.4 106.667C358.133 106.667 370.8 100.267 376.933 95.2C380.133 92.6666 383.066 90.8 383.6 91.0666C384.266 91.3333 419.2 111.467 461.466 135.867L538.4 180.133L537.066 185.733C535.866 190.8 536.133 208.4 537.466 213.2C537.866 214.4 532 218.533 521.333 224.8C512.266 230.133 503.6 235.867 502.266 237.467C499.466 241.067 500 246.933 503.6 250.933C507.733 255.6 514 254 531.466 244C540.266 238.8 548 234.667 548.533 234.667C549.066 234.667 552.133 236.8 555.2 239.2C561.2 244.267 573.866 250.667 577.733 250.667C579.866 250.667 580 255.867 580 341.333C580 426.8 579.866 432 577.733 432C573.866 432 561.2 438.4 555.2 443.467C552.133 445.867 549.2 448 548.8 448C548.4 448 540.666 443.733 531.6 438.667C514.133 428.667 507.733 427.067 503.6 431.6C500.533 435.067 499.733 440.267 501.733 444C502.666 446 510.133 451.333 520.666 457.467C531.866 464 537.866 468.267 537.466 469.467C536.133 474.267 535.866 491.867 537.066 496.933L538.4 502.533L461.466 546.8C419.2 571.2 384.266 591.333 383.6 591.6C383.066 591.867 380.133 590 376.933 587.467C370.8 582.4 358.133 576 354.4 576C352.266 576 352 574.133 352 554.667C352 533.733 351.866 533.2 348.666 530C344.4 525.6 338.266 525.6 334 530C330.8 533.2 330.666 533.733 330.666 554.667C330.666 574.133 330.4 576 328.4 576C324.533 576 311.866 582.4 305.733 587.467C302.533 590 299.6 591.867 299.066 591.6C298.4 591.333 263.466 571.2 221.2 546.8L144.266 502.533L145.6 496.933C146.8 491.867 146.533 474.267 145.2 469.467C144.8 468.267 150.8 464 162 457.467C172.533 451.333 180 446 180.933 444C182.933 440.267 182.133 435.067 179.066 431.6C174.933 427.067 168.533 428.667 151.066 438.667C142 443.867 134.266 448 133.866 448C133.466 448 130.533 445.867 127.466 443.467C121.466 438.4 108.8 432 105.066 432C102.8 432 102.666 426.8 102.666 341.333C102.666 255.867 102.8 250.667 105.066 250.667C108.8 250.667 121.466 244.267 127.466 239.2C130.533 236.8 133.6 234.667 134.133 234.667C134.666 234.667 142.4 238.8 151.2 244C169.066 254.267 174.8 255.6 179.333 250.667C182.533 247.2 182.666 239.333 179.6 236.4C178.4 235.2 170 229.867 161.066 224.533C150.533 218.4 144.8 214.4 145.2 213.2C146.533 208.4 146.8 190.8 145.6 185.733L144.266 180.133L221.866 135.333C264.4 110.8 299.466 90.6666 299.733 90.6666C300 90.6666 302.8 92.8 305.866 95.2ZM106.8 168C123.866 176.8 130.266 197.867 120.666 214C107.066 237.333 72.3998 234.933 61.8665 210C50.2665 182.667 80.3998 154.533 106.8 168ZM599.466 166C622.8 172.933 630.933 202.4 614.266 219.733C598.8 236 573.066 233.067 562 214C550.933 195.067 561.6 170.533 583.333 165.2C589.6 163.733 592.4 163.867 599.466 166ZM108.666 456.533C131.333 469.867 130.266 502.667 106.8 514.667C85.4665 525.333 59.4665 509.333 59.5998 485.467C59.5998 472 66.5331 461.333 79.3331 455.067C88.2665 450.8 99.7332 451.333 108.666 456.533ZM603.333 455.2C625.866 465.867 630.133 494.133 611.6 510C598.266 521.467 579.333 520.533 566.933 507.867C560.266 501.067 558 495.2 558 484.667C558 476.933 558.666 474.267 561.733 469.067C570.666 453.867 588.266 448 603.333 455.2ZM358.133 600.667C366.4 605.867 371.6 613.333 373.6 622.933C377.733 642.667 362 661.333 341.333 661.333C326.933 661.333 314.666 652.667 310.133 638.933C307.466 631.333 307.466 627.6 310 619.2C312.533 610.533 318.4 603.733 326.933 599.333C336.8 594.4 348.8 594.933 358.133 600.667Z" fill="#242424"/>
<path d="M254.533 180.533C237.467 185.333 222.8 197.733 214.933 214.267C210.133 224.533 210 224.933 210 240.667C210 259.067 212.267 266.4 221.2 278.133L226.4 285.067L219.067 290.133C199.467 303.6 185.2 328.533 183.067 352.8C182 365.333 183.067 369.067 188.133 371.2C196.8 374.8 204 369.467 204 359.467C204 338.4 220.4 312.267 239.6 302.533L246.4 299.067L256.267 301.6C262.8 303.333 268.667 304 274.133 303.6L282.267 303.067L285.333 309.2C286.933 312.533 290 317.467 292 320L295.867 324.8L286.667 331.867C267.467 346.4 255.467 368.533 252.533 394.267C251.467 404.267 253.333 409.733 258.533 412C263.2 413.867 268.933 412.533 271.2 408.8C272.267 407.333 273.467 402 273.867 397.2C276 374.267 289.867 353.067 309.2 342.8C316.4 339.067 316.8 339.067 322 341.067C329.333 343.867 353.333 343.867 360.8 341.067C366.133 338.933 366.4 339.067 373.467 342.8C392.667 353.333 406.667 374.667 408.8 396.933C409.2 401.867 410.4 407.333 411.467 408.8C415.333 415.067 426.4 413.733 429.333 406.533C432.933 397.867 426.8 371.333 417.733 356.267C412 346.933 400.933 335.067 392.267 329.067L386.533 325.2L390.533 320.267C392.667 317.467 395.733 312.533 397.333 309.2L400.4 303.067L408.533 303.6C414 304 419.867 303.333 426.4 301.6L436.267 299.067L443.067 302.533C452.267 307.2 465.2 320.267 470.267 330.133C475.333 339.6 478.667 351.467 478.667 359.6C478.667 365.867 482.667 371.733 487.333 372.133C496.667 372.933 500 369.467 500 359.2C500 334.267 486 307.067 465.2 291.467L456.4 284.933L461.6 278.133C470.4 266.4 472.667 259.067 472.667 240.667C472.667 224.933 472.533 224.533 467.733 214.267C456.933 191.6 436.133 178.667 410.4 178.667C387.333 178.667 365.6 191.733 355.467 211.867L352 218.667H341.333H330.667L327.2 211.733C319.867 197.333 302.4 183.733 286.533 180.133C278.667 178.267 262 178.533 254.533 180.533ZM289.067 203.867C296.667 207.733 304 214.533 307.733 221.067L310.667 226.4L306.133 229.333C299.6 233.2 288.8 245.467 285.333 252.667C281.733 260 278.667 271.2 278.667 276.933C278.667 282.133 275.733 283.333 266.933 282C252.267 279.867 240.133 270.667 234 257.2C230.8 249.867 230.4 247.733 230.933 238.8C231.733 226.667 234.933 219.6 243.467 211.2C251.867 203.067 260.8 199.867 273.333 200.4C280.267 200.8 285.067 201.733 289.067 203.867ZM426 202.8C435.867 206.533 445.467 216.133 449.2 226C458.667 251.2 442.667 278.133 415.733 282C406.933 283.333 404 282.133 404 276.933C404 271.067 400.933 260 397.2 252.4C394.133 246.133 380.533 231.067 375.467 228.4C368 224.4 384.667 205.867 400 201.2C406.533 199.2 418.4 200 426 202.8ZM359.333 244.4C374 251.867 383.467 267.867 382.267 283.467C381.067 298.8 372.533 311.6 358.933 318.267C343.2 326 323.067 322.133 311.333 309.067C303.467 300.4 300.667 293.067 300.667 280.667C300.667 272.133 301.333 268.8 303.867 264C309.467 253.2 319.2 244.933 330.667 241.2C337.2 239.067 352.267 240.667 359.333 244.4Z" fill="#242424"/>
<path d="M250.533 446.533C248.133 448.4 247.333 450.4 247.333 454.667C247.333 458.933 248.133 460.933 250.533 462.8C257.6 468.533 268 463.733 268 454.667C268 445.6 257.6 440.8 250.533 446.533Z" fill="#242424"/>
<path d="M284.667 447.333C274.933 456.933 288.4 471.067 299.2 462.533C301.867 460.4 302.667 458.667 302.667 454.667C302.667 445.067 291.467 440.533 284.667 447.333Z" fill="#242424"/>
<path d="M319.333 447.333C309.6 456.933 323.066 471.067 333.866 462.533C336.533 460.4 337.333 458.667 337.333 454.667C337.333 445.067 326.133 440.533 319.333 447.333Z" fill="#242424"/>
<path d="M388.266 446.667C383.866 450.8 384.266 458.933 388.8 462.533C392 465.067 394.133 465.333 410.666 465.333C432.533 465.333 435.333 464.133 435.333 454.667C435.333 450.4 434.533 448.4 432.133 446.533C429.466 444.267 426.666 444 410.133 444C392.933 444 390.933 444.267 388.266 446.667Z" fill="#242424"/>
<path d="M253.867 484C250.133 485.467 246.667 490.4 246.667 494.133C246.667 495.733 247.867 498.533 249.467 500.533L252.133 504H341.333H430.533L433.2 500.533C436.933 495.867 436.667 491.6 432.8 487.067L429.6 483.333L343.067 483.067C295.6 482.933 255.333 483.333 253.867 484Z" fill="#242424"/>
</svg>
