<svg width="683" height="683" viewBox="0 0 683 683" fill="none" xmlns="http://www.w3.org/2000/svg">
<g clip-path="url(#clip0_2003_122)">
<path d="M312 2.5333C260 13.6 220.267 52.1333 205.067 106C200.933 120.667 200.267 152.8 203.733 169.467C209.067 195.2 222 219.867 239.6 238.133L249.2 248L244.933 249.867C242.533 250.8 238.267 252.4 235.333 253.333C221.6 257.733 198.267 271.733 183.6 284.4L175.733 291.067L162.267 288.8C135.2 284.4 114.8 282.533 84.8 281.733C50.6667 280.8 48 281.333 42.6667 290C40.1333 294 40 296.8 40 329.067V363.867L34.2667 366.4C19.8667 372.933 7.33333 387.067 2.66667 402.267C0.266667 409.867 0 414.667 0 441.333C0 468 0.266667 472.8 2.66667 480.4C7.33333 495.6 19.8667 509.733 34.4 516.267L40 518.8V553.6C40 585.6 40.2667 588.667 42.5333 592.533C47.7333 600.8 51.0667 601.6 80.5333 602.8C112.267 604 128.533 605.6 154.667 610.133C213.067 620.133 264.8 639.733 314.667 670.8C332.4 681.867 332.8 682 341.333 682C349.867 682 350.267 681.867 368 670.8C417.867 639.733 469.6 620.133 528 610.133C554.133 605.6 570.4 604 602.133 602.8C631.6 601.6 634.933 600.8 640.133 592.533C642.4 588.667 642.667 585.6 642.667 553.6V518.8L648.4 516.267C662.8 509.733 675.333 495.6 680 480.4C682.4 472.8 682.667 468 682.667 441.333C682.667 414.667 682.4 409.867 680 402.267C675.333 387.067 662.8 372.933 648.4 366.4L642.667 363.867V329.067C642.667 296.8 642.533 294 640 290C634.667 281.333 632 280.8 597.867 281.733C567.867 282.533 547.467 284.4 520.4 288.8L506.933 291.067L499.067 284.4C483.467 270.933 461.067 257.733 445.333 252.667C432.267 248.4 432.4 249.2 443.067 238.133C460.667 219.867 473.6 195.2 478.933 169.467C481.2 158.667 481.467 153.333 480.933 136C480 109.333 476.533 95.8666 464.667 73.7333C444.8 36.4 409.067 9.86663 368 2.1333C353.067 -0.800036 326.667 -0.533369 312 2.5333ZM364.8 44C401.733 53.2 431.467 84.6666 438.8 122.4C441.2 135.333 439.733 159.733 435.6 171.6C424.8 202.8 401.333 225.867 370.133 236.267C362 238.933 358 239.333 341.333 239.333C324.667 239.333 320.667 238.933 312.533 236.267C281.333 225.867 257.867 202.8 247.067 171.6C242.933 159.733 241.467 135.333 243.867 122.4C251.2 84.9333 280.8 53.4666 317.333 44C331.067 40.5333 350.933 40.5333 364.8 44ZM390.667 282.667C399.333 283.333 411.333 285.467 418 287.333C431.467 291.067 455.6 302.4 453.867 304C453.2 304.533 447.6 306.667 441.333 308.667C416.267 316.933 380.933 333.2 355.867 348C348.4 352.4 341.867 356 341.333 356C340.8 356 334.267 352.4 326.8 348C301.867 333.2 270.8 318.933 242.667 309.2C235.733 306.933 229.467 304.533 228.8 303.867C227.067 302.4 251.333 291.067 264.667 287.333C271.333 285.333 282.4 283.333 289.333 282.8C307.6 281.2 372.667 281.2 390.667 282.667ZM130.667 326.133C161.067 329.733 195.067 337.067 221.333 345.6C247.867 354.267 285.067 371.333 310 386.4L320.667 392.8L321.067 509.2C321.2 573.2 320.933 625.333 320.4 625.067C319.733 624.8 308.267 619.067 294.667 612.4C232.933 581.867 170.4 565.867 97.0667 561.867L80 560.933V539.867V518.8L85.7333 516.267C100.133 509.733 112.667 495.6 117.333 480.4C119.733 472.8 120 468 120 441.333C120 414.667 119.733 409.867 117.333 402.267C112.667 387.067 100.133 372.933 85.7333 366.4L80 363.867V343.067V322.267L97.0667 323.2C106.4 323.733 121.467 325.067 130.667 326.133ZM602.667 343.333V363.867L597.067 366.4C582.533 372.933 570 387.067 565.333 402.267C562.933 409.867 562.667 414.667 562.667 441.333C562.667 468 562.933 472.8 565.333 480.4C570 495.6 582.533 509.733 597.067 516.267L602.667 518.8V539.867V560.933L585.733 561.867C512.267 565.867 449.733 581.867 388 612.4C374.4 619.067 362.933 624.8 362.267 625.067C361.733 625.333 361.467 573.2 361.6 509.2L362 392.8L372.667 386.4C397.6 371.333 434.8 354.267 461.333 345.6C500.667 332.8 551.467 324.133 593.733 322.933L602.667 322.667V343.333ZM69.6 404.933C71.7333 406.267 74.8 409.467 76.4 412C79.2 416.4 79.3333 418.267 79.3333 441.333C79.3333 464.4 79.2 466.267 76.4 470.667C72.6667 476.8 66.9333 480 60 480C53.0667 480 47.3333 476.8 43.6 470.667C40.8 466.267 40.6667 464.4 40.6667 441.333C40.6667 418.533 40.9333 416.267 43.4667 412.267C49.3333 403.067 60.8 399.867 69.6 404.933ZM632.267 404.933C634.4 406.267 637.467 409.467 639.067 412C641.867 416.4 642 418.267 642 441.333C642 464.4 641.867 466.267 639.067 470.667C635.333 476.8 629.6 480 622.667 480C615.733 480 610 476.8 606.267 470.667C603.467 466.267 603.333 464.4 603.333 441.333C603.333 418.533 603.6 416.267 606.133 412.267C612 403.067 623.467 399.867 632.267 404.933Z" fill="#242424"/>
</g>
<defs>
<clipPath id="clip0_2003_122">
<rect width="682.667" height="682.667" fill="white"/>
</clipPath>
</defs>
</svg>
